<?xml version="1.0" standalone="no"?>
<!DOCTYPE svg PUBLIC "-//W3C//DTD SVG 20010904//EN"
 "http://www.w3.org/TR/2001/REC-SVG-20010904/DTD/svg10.dtd">
<svg version="1.0" xmlns="http://www.w3.org/2000/svg"
 width="16.000000pt" height="16.000000pt" viewBox="0 0 16.000000 16.000000"
 preserveAspectRatio="xMidYMid meet">
<metadata>
Created by potrace 1.11, written by Peter Selinger 2001-2013
</metadata>
<g transform="translate(0.000000,16.000000) scale(0.002286,-0.002286)"
fill="#000000" stroke="none">
<path d="M3348 6865 c-2 -2 -37 -6 -79 -9 -42 -4 -85 -8 -95 -10 -11 -2 -41
-7 -69 -10 -225 -30 -532 -133 -763 -257 -285 -152 -562 -378 -748 -610 -32
-41 -65 -80 -72 -87 -53 -57 -221 -343 -277 -472 -20 -47 -43 -98 -50 -115
-67 -152 -131 -421 -160 -680 -7 -64 -8 -352 0 -385 3 -14 8 -47 11 -75 29
-238 169 -640 359 -1030 235 -480 521 -943 1019 -1648 181 -256 797 -1052 856
-1107 3 -3 39 -45 80 -95 40 -50 89 -106 108 -126 l34 -37 47 52 c58 65 122
139 246 286 54 63 107 126 119 140 11 14 37 45 56 70 19 25 37 47 40 50 11 11
66 78 90 110 14 18 72 92 129 164 143 181 138 174 258 336 630 846 1077 1603
1300 2200 65 175 144 449 157 550 4 25 11 79 17 120 17 112 13 395 -6 510 -2
14 -7 45 -10 70 -20 146 -75 359 -124 485 -143 362 -313 626 -571 885 -205
207 -425 362 -695 491 -100 48 -344 139 -412 154 -10 2 -60 13 -111 25 -51 11
-125 25 -165 30 -39 6 -88 13 -107 16 -37 6 -407 13 -412 9z"/>
</g>
</svg>
