<?xml version="1.0" encoding="UTF-8" standalone="no"?>
<!-- Created with Inkscape (http://www.inkscape.org/) -->

<svg
   xmlns:dc="http://purl.org/dc/elements/1.1/"
   xmlns:cc="http://creativecommons.org/ns#"
   xmlns:rdf="http://www.w3.org/1999/02/22-rdf-syntax-ns#"
   xmlns:svg="http://www.w3.org/2000/svg"
   xmlns="http://www.w3.org/2000/svg"
   xmlns:sodipodi="http://sodipodi.sourceforge.net/DTD/sodipodi-0.dtd"
   xmlns:inkscape="http://www.inkscape.org/namespaces/inkscape"
   id="svg2"
   version="1.1"
   inkscape:version="0.91 r13725"
   xml:space="preserve"
   width="512"
   height="512"
   viewBox="0 0 511.99998 512.00001"
   sodipodi:docname="ballers-pin.svg"
   inkscape:export-filename="/home/leandrost/dropbox/ballers/ballers-pin-1024.png"
   inkscape:export-xdpi="180"
   inkscape:export-ydpi="180"><metadata
     id="metadata8"><rdf:RDF><cc:Work
         rdf:about=""><dc:format>image/svg+xml</dc:format><dc:type
           rdf:resource="http://purl.org/dc/dcmitype/StillImage" /><dc:title></dc:title></cc:Work></rdf:RDF></metadata><defs
     id="defs6"><clipPath
       clipPathUnits="userSpaceOnUse"
       id="clipPath16"><path
         d="m 0,595.28 841.89,0 L 841.89,0 0,0 0,595.28 Z"
         id="path18"
         inkscape:connector-curvature="0" /></clipPath><clipPath
       clipPathUnits="userSpaceOnUse"
       id="clipPath72"><path
         d="m 165.115,315.997 c 0.07,-2.595 0.086,-5.189 0.113,-7.786 l 0,0 0.793,-0.123 1.215,-0.192 1.2,-0.284 2.393,-0.582 2.342,-0.773 c 0.788,-0.238 1.54,-0.571 2.296,-0.898 l 0,0 c 0.747,-0.339 1.527,-0.611 2.245,-1.011 l 0,0 2.18,-1.144 c 0.721,-0.391 1.397,-0.859 2.096,-1.286 l 0,0 1.038,-0.654 0.989,-0.727 c 0.651,-0.492 1.33,-0.95 1.946,-1.486 l 0,0 1.848,-1.601 c 0.613,-0.535 1.166,-1.133 1.75,-1.697 l 0,0 0.863,-0.858 0.806,-0.907 c 0.531,-0.613 1.095,-1.194 1.593,-1.831 l 0,0 1.499,-1.9 c 0.497,-0.635 0.932,-1.314 1.399,-1.969 l 0,0 0.69,-0.988 0.347,-0.555 c 5.06,10.003 8.961,19.883 10.778,28.917 l 0,0 -2.733,0.683 c -1.257,0.329 -2.528,0.611 -3.801,0.882 l 0,0 -3.811,0.829 c -1.267,0.29 -2.544,0.531 -3.823,0.765 l 0,0 -3.831,0.732 -1.912,0.365 -1.924,0.313 c -2.567,0.404 -5.122,0.859 -7.694,1.22 l 0,0 -3.857,0.544 c -1.287,0.17 -2.567,0.386 -3.857,0.519 l 0,0 c -1.861,0.201 -3.715,0.425 -5.57,0.647 l 0,0 0.394,-7.164 z"
         id="path74"
         inkscape:connector-curvature="0" /></clipPath><linearGradient
       x1="0"
       y1="0"
       x2="1"
       y2="0"
       gradientUnits="userSpaceOnUse"
       gradientTransform="matrix(42.812988,0,0,-42.812988,164.7207,304.95312)"
       spreadMethod="pad"
       id="linearGradient80"><stop
         style="stop-opacity:1;stop-color:#ef4136"
         offset="0"
         id="stop82" /><stop
         style="stop-opacity:1;stop-color:#f15a29"
         offset="1"
         id="stop84" /></linearGradient><clipPath
       clipPathUnits="userSpaceOnUse"
       id="clipPath92"><path
         d="m 150.706,387.569 0.942,-2.288 0.481,-1.141 0.41,-1.165 1.652,-4.668 0.837,-2.335 c 0.3,-0.772 0.521,-1.568 0.762,-2.358 l 0,0 1.428,-4.75 0.717,-2.379 0.358,-1.189 0.304,-1.204 1.168,-4.824 c 0.277,-1.162 0.557,-2.323 0.833,-3.484 l 0,0 1.308,0.015 1.262,0.013 1.257,0.071 c 0.837,0.054 1.675,0.083 2.509,0.156 l 0,0 2.492,0.235 c 0.832,0.066 1.646,0.233 2.469,0.335 l 0,0 c 0.828,0.095 1.638,0.254 2.446,0.421 l 0,0 c 0.812,0.152 1.621,0.318 2.411,0.535 l 0,0 c 0.795,0.207 1.601,0.378 2.37,0.654 l 0,0 c 0.773,0.259 1.565,0.479 2.311,0.795 l 0,0 c 0.756,0.298 1.525,0.574 2.244,0.943 l 0,0 1.097,0.519 c 0.361,0.181 0.706,0.388 1.062,0.579 l 0,0 c 0.721,0.371 1.39,0.816 2.061,1.263 l 0,0 c 0.345,0.211 0.67,0.447 0.983,0.702 l 0,0 0.956,0.737 c 0.598,0.536 1.22,1.054 1.785,1.63 l 0,0 0.852,0.864 c 0.278,0.295 0.528,0.612 0.797,0.917 l 0,0 c 0.3,0.33 0.57,0.684 0.836,1.044 l 0,0 -2.961,2.898 -2.018,1.77 c -0.678,0.587 -1.342,1.195 -2.033,1.765 l 0,0 -2.126,1.653 c -0.714,0.545 -1.41,1.12 -2.143,1.642 l 0,0 -2.233,1.516 c -0.75,0.497 -1.483,1.028 -2.253,1.497 l 0,0 -2.33,1.376 c -0.779,0.455 -1.552,0.927 -2.356,1.339 l 0,0 -2.428,1.203 c -0.815,0.394 -1.613,0.819 -2.439,1.189 l 0,0 c -0.832,0.355 -1.667,0.702 -2.506,1.039 l 0,0 c -0.839,0.337 -1.673,0.695 -2.519,1.016 l 0,0 -5.161,1.7 -4.908,1.253 c -1.601,0.302 -3.199,0.611 -4.8,0.899 l 0,0 1.814,-4.398 z"
         id="path94"
         inkscape:connector-curvature="0" /></clipPath><linearGradient
       x1="0"
       y1="0"
       x2="1"
       y2="0"
       gradientUnits="userSpaceOnUse"
       gradientTransform="matrix(45.212891,0,0,-45.212891,148.89258,373.875)"
       spreadMethod="pad"
       id="linearGradient100"><stop
         style="stop-opacity:1;stop-color:#ef4136"
         offset="0"
         id="stop102" /><stop
         style="stop-opacity:1;stop-color:#f15a29"
         offset="1"
         id="stop104" /></linearGradient><clipPath
       clipPathUnits="userSpaceOnUse"
       id="clipPath112"><path
         d="m 158.6,389.815 c -1.225,0.356 -2.452,0.675 -3.678,0.977 l 0,0 3.678,-0.977 z"
         id="path114"
         inkscape:connector-curvature="0" /></clipPath><linearGradient
       x1="0"
       y1="0"
       x2="1"
       y2="0"
       gradientUnits="userSpaceOnUse"
       gradientTransform="matrix(3.6772461,0,0,-3.6772461,154.92236,390.30371)"
       spreadMethod="pad"
       id="linearGradient120"><stop
         style="stop-opacity:1;stop-color:#ef4136"
         offset="0"
         id="stop122" /><stop
         style="stop-opacity:1;stop-color:#f15a29"
         offset="1"
         id="stop124" /></linearGradient><clipPath
       clipPathUnits="userSpaceOnUse"
       id="clipPath132"><path
         d="m 198.556,359.974 -0.996,-1.083 c -0.647,-0.735 -1.407,-1.362 -2.108,-2.046 l 0,0 c -0.768,-0.605 -1.499,-1.27 -2.307,-1.822 l 0,0 c -0.804,-0.557 -1.595,-1.14 -2.448,-1.615 l 0,0 -1.262,-0.748 -1.309,-0.648 c -0.438,-0.209 -0.869,-0.441 -1.317,-0.632 l 0,0 -1.346,-0.551 c -0.892,-0.391 -1.81,-0.688 -2.728,-0.991 l 0,0 c -0.913,-0.328 -1.844,-0.572 -2.775,-0.813 l 0,0 -1.396,-0.368 -1.408,-0.284 c -0.941,-0.19 -1.879,-0.397 -2.826,-0.512 l 0,0 c -0.945,-0.127 -1.891,-0.296 -2.838,-0.388 l 0,0 -2.843,-0.258 c -0.949,-0.073 -1.897,-0.079 -2.845,-0.121 l 0,0 -1.423,-0.051 -1.417,0.01 -0.657,0.007 0.927,-7.084 0.075,-0.575 0.041,-0.329 0.029,-0.289 0.111,-1.164 0.206,-2.329 0.288,-3.272 6.327,-0.858 c 1.291,-0.171 2.574,-0.408 3.86,-0.618 l 0,0 3.851,-0.668 c 1.286,-0.205 2.559,-0.481 3.836,-0.736 l 0,0 3.83,-0.775 c 2.557,-0.483 5.078,-1.16 7.612,-1.747 l 0,0 1.897,-0.455 1.886,-0.508 3.769,-1.015 1.88,-0.521 1.865,-0.574 3.726,-1.152 c 0.059,-0.017 0.114,-0.036 0.171,-0.053 l 0,0 c 0.103,1.258 0.166,2.498 0.166,3.71 l 0,0 c 0,12.681 -3.442,24.556 -9.438,34.749 l 0,0 c -0.219,-0.277 -0.435,-0.555 -0.666,-0.823"
         id="path134"
         inkscape:connector-curvature="0" /></clipPath><linearGradient
       x1="0"
       y1="0"
       x2="1"
       y2="0"
       gradientUnits="userSpaceOnUse"
       gradientTransform="matrix(46.353027,0,0,-46.353027,162.30664,341.56738)"
       spreadMethod="pad"
       id="linearGradient140"><stop
         style="stop-opacity:1;stop-color:#ef4136"
         offset="0"
         id="stop142" /><stop
         style="stop-opacity:1;stop-color:#f15a29"
         offset="1"
         id="stop144" /></linearGradient><clipPath
       clipPathUnits="userSpaceOnUse"
       id="clipPath152"><path
         d="m 120.398,325.204 c -2.466,-0.075 -4.927,-0.27 -7.392,-0.399 l 0,0 c -2.464,-0.148 -4.914,-0.44 -7.375,-0.651 l 0,0 c -2.459,-0.23 -4.897,-0.603 -7.349,-0.893 l 0,0 c -1.229,-0.136 -2.444,-0.355 -3.66,-0.556 l 0,0 -3.653,-0.612 c -1.223,-0.182 -2.426,-0.449 -3.634,-0.704 l 0,0 -3.624,-0.765 c -1.215,-0.229 -2.403,-0.56 -3.601,-0.861 l 0,0 -3.59,-0.912 c -1.206,-0.279 -2.38,-0.667 -3.561,-1.024 l 0,0 -0.755,-0.231 c 2.637,-14.068 11.095,-31.077 21.19,-47.492 l 0,0 c 0.849,0.852 1.693,1.709 2.551,2.551 l 0,0 c 1.728,1.692 3.469,3.371 5.241,5.022 l 0,0 c 1.764,1.658 3.558,3.289 5.388,4.879 l 0,0 c 0.908,0.803 1.825,1.598 2.755,2.375 l 0,0 c 0.926,0.787 1.853,1.57 2.801,2.332 l 0,0 c 1.878,1.539 3.79,3.043 5.741,4.498 l 0,0 c 0.976,0.728 1.949,1.461 2.952,2.155 l 0,0 c 0.995,0.705 1.987,1.413 3.01,2.08 l 0,0 c 1.014,0.684 2.03,1.359 3.077,1.997 l 0,0 1.557,0.972 1.588,0.925 1.597,0.918 1.626,0.867 c 1.074,0.595 2.197,1.109 3.307,1.642 l 0,0 c 1.101,0.554 2.263,0.99 3.393,1.488 l 0,0 c 1.143,0.47 2.319,0.875 3.48,1.308 l 0,0 c 2.366,0.757 4.761,1.469 7.235,1.897 l 0,0 c 1.846,0.383 3.739,0.574 5.637,0.676 l 0,0 -0.125,7.601 -0.368,7.853 -5.84,0.504 c -2.463,0.178 -4.928,0.295 -7.393,0.445 l 0,0 c -2.465,0.113 -4.933,0.158 -7.4,0.24 l 0,0 c -2.468,0.047 -4.935,0.015 -7.404,0.042 l 0,0 c -2.467,-0.008 -4.933,-0.115 -7.402,-0.167"
         id="path154"
         inkscape:connector-curvature="0" /></clipPath><linearGradient
       x1="0"
       y1="0"
       x2="1"
       y2="0"
       gradientUnits="userSpaceOnUse"
       gradientTransform="matrix(84.125488,0,0,-84.125488,72.20459,297.7373)"
       spreadMethod="pad"
       id="linearGradient160"><stop
         style="stop-opacity:1;stop-color:#ef4136"
         offset="0"
         id="stop162" /><stop
         style="stop-opacity:1;stop-color:#f15a29"
         offset="1"
         id="stop164" /></linearGradient><clipPath
       clipPathUnits="userSpaceOnUse"
       id="clipPath172"><path
         d="m 162.594,388.545 c -1.316,0.448 -2.644,0.879 -3.994,1.27 l 0,0 3.994,-1.27 z"
         id="path174"
         inkscape:connector-curvature="0" /></clipPath><linearGradient
       x1="0"
       y1="0"
       x2="1"
       y2="0"
       gradientUnits="userSpaceOnUse"
       gradientTransform="matrix(3.9946289,0,0,-3.9946289,158.59961,389.18066)"
       spreadMethod="pad"
       id="linearGradient180"><stop
         style="stop-opacity:1;stop-color:#ef4136"
         offset="0"
         id="stop182" /><stop
         style="stop-opacity:1;stop-color:#f15a29"
         offset="1"
         id="stop184" /></linearGradient><clipPath
       clipPathUnits="userSpaceOnUse"
       id="clipPath192"><path
         d="m 155.712,299.777 -0.819,-0.103 -1.637,-0.207 -1.629,-0.325 c -1.09,-0.181 -2.154,-0.535 -3.231,-0.802 l 0,0 c -1.064,-0.335 -2.13,-0.674 -3.181,-1.061 l 0,0 c -2.09,-0.808 -4.18,-1.647 -6.201,-2.669 l 0,0 -1.523,-0.752 -1.496,-0.808 c -1.009,-0.523 -1.982,-1.114 -2.964,-1.688 l 0,0 c -1.958,-1.158 -3.874,-2.403 -5.765,-3.69 l 0,0 c -1.893,-1.284 -3.763,-2.611 -5.603,-3.983 l 0,0 c -1.837,-1.375 -3.649,-2.788 -5.437,-4.237 l 0,0 c -1.787,-1.453 -3.55,-2.935 -5.31,-4.426 l 0,0 c -1.755,-1.493 -3.494,-3.014 -5.209,-4.559 l 0,0 c -1.722,-1.543 -3.426,-3.105 -5.109,-4.691 l 0,0 c -0.939,-0.876 -1.86,-1.773 -2.787,-2.662 l 0,0 c 14.217,-21.943 30.332,-41.835 37.87,-50.834 l 0,0 c 0.88,1.538 1.786,3.057 2.617,4.617 l 0,0 c 0.878,1.744 1.847,3.444 2.617,5.236 l 0,0 c 0.8,1.778 1.638,3.528 2.345,5.36 l 0,0 1.106,2.719 c 0.344,0.891 0.649,1.834 0.976,2.746 l 0,0 1.926,5.518 c 0.577,1.859 1.081,3.744 1.624,5.611 l 0,0 0.803,2.808 c 0.275,0.932 0.449,1.895 0.681,2.839 l 0,0 1.304,5.689 c 0.423,1.899 0.705,3.828 1.065,5.738 l 0,0 c 0.323,1.918 0.736,3.819 0.952,5.754 l 0,0 0.767,5.782 c 0.294,1.922 0.397,3.868 0.593,5.802 l 0,0 c 0.154,1.937 0.398,3.865 0.525,5.805 l 0,0 0.349,5.82 c 0.052,0.968 0.133,1.938 0.161,2.908 l 0,0 0.068,2.914 0.111,3.861 -0.559,-0.03 z"
         id="path194"
         inkscape:connector-curvature="0" /></clipPath><linearGradient
       x1="0"
       y1="0"
       x2="1"
       y2="0"
       gradientUnits="userSpaceOnUse"
       gradientTransform="matrix(58.459473,0,0,-58.459473,97.811035,256.04395)"
       spreadMethod="pad"
       id="linearGradient200"><stop
         style="stop-opacity:1;stop-color:#ef4136"
         offset="0"
         id="stop202" /><stop
         style="stop-opacity:1;stop-color:#f15a29"
         offset="1"
         id="stop204" /></linearGradient><clipPath
       clipPathUnits="userSpaceOnUse"
       id="clipPath212"><path
         d="m 164.878,295.532 c -0.088,-1.943 -0.16,-3.891 -0.348,-5.829 l 0,0 -0.482,-5.821 -0.12,-1.453 -0.177,-1.452 -0.352,-2.898 c -0.252,-1.931 -0.461,-3.868 -0.765,-5.791 l 0,0 -0.978,-5.759 -0.489,-2.878 -0.617,-2.855 -1.245,-5.707 c -0.448,-1.893 -1.009,-3.762 -1.507,-5.64 l 0,0 -0.771,-2.815 c -0.133,-0.471 -0.249,-0.941 -0.393,-1.407 l 0,0 -0.461,-1.39 -1.849,-5.553 c -0.577,-1.869 -1.372,-3.627 -2.077,-5.432 l 0,0 c -0.739,-1.796 -1.404,-3.582 -2.205,-5.39 l 0,0 c -0.827,-1.76 -1.612,-3.535 -2.514,-5.256 l 0,0 c -0.442,-0.864 -0.867,-1.734 -1.323,-2.592 l 0,0 -1.415,-2.543 c -0.462,-0.853 -0.957,-1.683 -1.467,-2.507 l 0,0 -1.506,-2.481 2.889,0.463 c 9.64,11.15 32.038,38.199 47.592,65.865 l 0,0 c -0.028,0.045 -0.055,0.091 -0.082,0.137 l 0,0 c -0.386,0.633 -0.748,1.283 -1.168,1.892 l 0,0 -1.232,1.849 -1.312,1.785 c -0.434,0.595 -0.924,1.146 -1.382,1.72 l 0,0 c -0.454,0.582 -0.957,1.117 -1.452,1.658 l 0,0 c -0.963,1.11 -2.033,2.109 -3.097,3.108 l 0,0 -1.664,1.422 c -0.571,0.452 -1.166,0.871 -1.748,1.308 l 0,0 c -0.57,0.456 -1.207,0.808 -1.814,1.205 l 0,0 -0.92,0.584 -0.959,0.513 c -0.649,0.325 -1.263,0.719 -1.939,0.988 l 0,0 -1.994,0.867 c -1.374,0.468 -2.731,0.991 -4.156,1.302 l 0,0 c -0.763,0.226 -1.544,0.378 -2.33,0.514 l 0,0 -0.171,-3.731 z"
         id="path214"
         inkscape:connector-curvature="0" /></clipPath><linearGradient
       x1="0"
       y1="0"
       x2="1"
       y2="0"
       gradientUnits="userSpaceOnUse"
       gradientTransform="matrix(50.480469,0,0,-50.480469,141.81689,255.67285)"
       spreadMethod="pad"
       id="linearGradient220"><stop
         style="stop-opacity:1;stop-color:#ef4136"
         offset="0"
         id="stop222" /><stop
         style="stop-opacity:1;stop-color:#f15a29"
         offset="1"
         id="stop224" /></linearGradient><clipPath
       clipPathUnits="userSpaceOnUse"
       id="clipPath232"><path
         d="m 135.011,393.036 -3.923,-0.176 -3.905,-0.327 c -1.299,-0.14 -2.59,-0.327 -3.882,-0.487 l 0,0 c -1.289,-0.193 -2.569,-0.446 -3.851,-0.65 l 0,0 c -0.481,-0.09 -0.96,-0.192 -1.441,-0.292 l 0,0 c -9.113,-3.08 -17.369,-8.024 -24.316,-14.376 l 0,0 c 1.085,-0.394 2.168,-0.795 3.239,-1.217 l 0,0 c 1.475,-0.581 2.947,-1.169 4.401,-1.784 l 0,0 c 2.919,-1.221 5.808,-2.463 8.669,-3.745 l 0,0 4.294,-1.904 4.301,-1.851 c 1.428,-0.633 2.88,-1.179 4.32,-1.774 l 0,0 2.163,-0.87 2.182,-0.807 c 1.458,-0.53 2.891,-1.138 4.37,-1.592 l 0,0 4.411,-1.454 4.47,-1.227 c 1.483,-0.453 3.007,-0.699 4.51,-1.054 l 0,0 c 1.51,-0.328 3.014,-0.698 4.546,-0.884 l 0,0 2.762,-0.418 -0.511,3.015 c -0.267,1.643 -0.605,3.269 -0.904,4.906 l 0,0 c -0.288,1.641 -0.674,3.258 -1.014,4.887 l 0,0 c -0.182,0.812 -0.337,1.631 -0.542,2.436 l 0,0 -0.576,2.428 c -0.197,0.809 -0.369,1.625 -0.589,2.427 l 0,0 -0.65,2.411 c -0.223,0.802 -0.419,1.615 -0.665,2.409 l 0,0 -0.712,2.395 c -0.239,0.799 -0.468,1.603 -0.746,2.384 l 0,0 -0.797,2.37 c -0.512,1.59 -1.162,3.138 -1.736,4.711 l 0,0 -3.943,0.132 -3.935,-0.022 z"
         id="path234"
         inkscape:connector-curvature="0" /></clipPath><linearGradient
       x1="0"
       y1="0"
       x2="1"
       y2="0"
       gradientUnits="userSpaceOnUse"
       gradientTransform="matrix(58.638672,0,0,-58.638672,93.692383,374.60254)"
       spreadMethod="pad"
       id="linearGradient240"><stop
         style="stop-opacity:1;stop-color:#ef4136"
         offset="0"
         id="stop242" /><stop
         style="stop-opacity:1;stop-color:#f15a29"
         offset="1"
         id="stop244" /></linearGradient><clipPath
       clipPathUnits="userSpaceOnUse"
       id="clipPath252"><path
         d="m 71.348,326.048 c 0,-0.207 0.013,-0.421 0.017,-0.629 l 0,0 c 1.587,0.511 3.174,1.024 4.778,1.474 l 0,0 3.604,0.955 c 1.207,0.3 2.397,0.67 3.615,0.909 l 0,0 c 2.43,0.513 4.848,1.094 7.288,1.549 l 0,0 c 2.446,0.418 4.885,0.895 7.339,1.262 l 0,0 c 2.46,0.329 4.913,0.705 7.377,0.991 l 0,0 c 2.468,0.239 4.933,0.534 7.403,0.726 l 0,0 c 2.476,0.151 4.947,0.331 7.423,0.458 l 0,0 7.428,0.229 7.429,0.011 7.426,-0.198 7.411,-0.423 5.325,-0.453 -0.234,2.492 -0.214,2.284 -0.055,0.548 -0.073,0.566 -0.145,1.129 -1.005,7.874 -3.88,0.498 c -1.731,0.171 -3.425,0.565 -5.128,0.895 l 0,0 c -1.701,0.345 -3.413,0.638 -5.075,1.124 l 0,0 c -1.672,0.452 -3.355,0.865 -5.015,1.348 l 0,0 -4.929,1.597 c -1.642,0.538 -3.236,1.196 -4.855,1.789 l 0,0 c -1.622,0.586 -3.204,1.259 -4.79,1.921 l 0,0 c -1.589,0.656 -3.177,1.317 -4.739,2.028 l 0,0 c -1.563,0.703 -3.148,1.378 -4.693,2.109 l 0,0 -4.655,2.162 -4.653,2.153 c -1.552,0.717 -3.11,1.413 -4.673,2.094 l 0,0 c -1.554,0.709 -3.137,1.336 -4.712,1.995 l 0,0 c -0.785,0.328 -1.591,0.607 -2.386,0.914 l 0,0 c -0.425,0.157 -0.848,0.32 -1.272,0.477 l 0,0 C 77.635,358.874 71.348,343.196 71.348,326.048"
         id="path254"
         inkscape:connector-curvature="0" /></clipPath><linearGradient
       x1="0"
       y1="0"
       x2="1"
       y2="0"
       gradientUnits="userSpaceOnUse"
       gradientTransform="matrix(83.863281,0,0,-83.863281,71.348145,348.16211)"
       spreadMethod="pad"
       id="linearGradient260"><stop
         style="stop-opacity:1;stop-color:#ef4136"
         offset="0"
         id="stop262" /><stop
         style="stop-opacity:1;stop-color:#f15a29"
         offset="1"
         id="stop264" /></linearGradient><clipPath
       clipPathUnits="userSpaceOnUse"
       id="clipPath4768"><rect
         style="fill:#ffffff;fill-opacity:0;stroke:#000000;stroke-width:1.32369077;stroke-miterlimit:4;stroke-dasharray:none;stroke-opacity:1"
         id="rect4770"
         width="198.31552"
         height="234.45306"
         x="43.242237"
         y="-412.42654"
         transform="scale(1,-1)" /></clipPath></defs><sodipodi:namedview
     pagecolor="#ffffff"
     bordercolor="#666666"
     borderopacity="1"
     objecttolerance="10"
     gridtolerance="10"
     guidetolerance="10"
     inkscape:pageopacity="0"
     inkscape:pageshadow="2"
     inkscape:window-width="1366"
     inkscape:window-height="704"
     id="namedview4"
     showgrid="false"
     fit-margin-top="0"
     fit-margin-left="0"
     fit-margin-right="0"
     fit-margin-bottom="0"
     inkscape:zoom="1"
     inkscape:cx="184.11682"
     inkscape:cy="335.56424"
     inkscape:window-x="0"
     inkscape:window-y="27"
     inkscape:window-maximized="1"
     inkscape:current-layer="g10"
     units="px"
     width="420.00001mm" /><g
     id="g10"
     inkscape:groupmode="layer"
     inkscape:label="ballers-logo"
     transform="matrix(1.25,0,0,-1.25,-210.98177,868.48574)"><g
       id="g4712"
       clip-path="url(#clipPath4768)"
       transform="matrix(1.757054,0,0,1.757054,127.60475,-29.580857)"
       inkscape:export-filename="/home/leandrost/downloads/ballers-pin-1024.png"
       inkscape:export-xdpi="262.29974"
       inkscape:export-ydpi="262.29974"><path
         inkscape:connector-curvature="0"
         id="path66"
         style="fill:#132133;fill-opacity:1;fill-rule:nonzero;stroke:none"
         d="M 0,0 C -45.517,0 -82.418,-36.9 -82.418,-82.42 -82.418,-131.088 0,-225.083 0,-225.083 c 0,0 82.418,90.378 82.418,142.663 C 82.418,-36.9 45.519,0 0,0"
         transform="translate(140.0034,407.8716)" /><g
         id="g4659"><g
           id="g68"><g
             id="g70"
             clip-path="url(#clipPath72)"><g
               id="g76"><g
                 id="g78"><path
                   d="m 165.115,315.997 c 0.07,-2.595 0.086,-5.189 0.113,-7.786 l 0,0 0.793,-0.123 1.215,-0.192 1.2,-0.284 2.393,-0.582 2.342,-0.773 c 0.788,-0.238 1.54,-0.571 2.296,-0.898 l 0,0 c 0.747,-0.339 1.527,-0.611 2.245,-1.011 l 0,0 2.18,-1.144 c 0.721,-0.391 1.397,-0.859 2.096,-1.286 l 0,0 1.038,-0.654 0.989,-0.727 c 0.651,-0.492 1.33,-0.95 1.946,-1.486 l 0,0 1.848,-1.601 c 0.613,-0.535 1.166,-1.133 1.75,-1.697 l 0,0 0.863,-0.858 0.806,-0.907 c 0.531,-0.613 1.095,-1.194 1.593,-1.831 l 0,0 1.499,-1.9 c 0.497,-0.635 0.932,-1.314 1.399,-1.969 l 0,0 0.69,-0.988 0.347,-0.555 c 5.06,10.003 8.961,19.883 10.778,28.917 l 0,0 -2.733,0.683 c -1.257,0.329 -2.528,0.611 -3.801,0.882 l 0,0 -3.811,0.829 c -1.267,0.29 -2.544,0.531 -3.823,0.765 l 0,0 -3.831,0.732 -1.912,0.365 -1.924,0.313 c -2.567,0.404 -5.122,0.859 -7.694,1.22 l 0,0 -3.857,0.544 c -1.287,0.17 -2.567,0.386 -3.857,0.519 l 0,0 c -1.861,0.201 -3.715,0.425 -5.57,0.647 l 0,0 0.394,-7.164 z"
                   style="fill:url(#linearGradient80);stroke:none"
                   id="path86"
                   inkscape:connector-curvature="0" /></g></g></g></g><g
           id="g88"><g
             id="g90"
             clip-path="url(#clipPath92)"><g
               id="g96"><g
                 id="g98"><path
                   d="m 150.706,387.569 0.942,-2.288 0.481,-1.141 0.41,-1.165 1.652,-4.668 0.837,-2.335 c 0.3,-0.772 0.521,-1.568 0.762,-2.358 l 0,0 1.428,-4.75 0.717,-2.379 0.358,-1.189 0.304,-1.204 1.168,-4.824 c 0.277,-1.162 0.557,-2.323 0.833,-3.484 l 0,0 1.308,0.015 1.262,0.013 1.257,0.071 c 0.837,0.054 1.675,0.083 2.509,0.156 l 0,0 2.492,0.235 c 0.832,0.066 1.646,0.233 2.469,0.335 l 0,0 c 0.828,0.095 1.638,0.254 2.446,0.421 l 0,0 c 0.812,0.152 1.621,0.318 2.411,0.535 l 0,0 c 0.795,0.207 1.601,0.378 2.37,0.654 l 0,0 c 0.773,0.259 1.565,0.479 2.311,0.795 l 0,0 c 0.756,0.298 1.525,0.574 2.244,0.943 l 0,0 1.097,0.519 c 0.361,0.181 0.706,0.388 1.062,0.579 l 0,0 c 0.721,0.371 1.39,0.816 2.061,1.263 l 0,0 c 0.345,0.211 0.67,0.447 0.983,0.702 l 0,0 0.956,0.737 c 0.598,0.536 1.22,1.054 1.785,1.63 l 0,0 0.852,0.864 c 0.278,0.295 0.528,0.612 0.797,0.917 l 0,0 c 0.3,0.33 0.57,0.684 0.836,1.044 l 0,0 -2.961,2.898 -2.018,1.77 c -0.678,0.587 -1.342,1.195 -2.033,1.765 l 0,0 -2.126,1.653 c -0.714,0.545 -1.41,1.12 -2.143,1.642 l 0,0 -2.233,1.516 c -0.75,0.497 -1.483,1.028 -2.253,1.497 l 0,0 -2.33,1.376 c -0.779,0.455 -1.552,0.927 -2.356,1.339 l 0,0 -2.428,1.203 c -0.815,0.394 -1.613,0.819 -2.439,1.189 l 0,0 c -0.832,0.355 -1.667,0.702 -2.506,1.039 l 0,0 c -0.839,0.337 -1.673,0.695 -2.519,1.016 l 0,0 -5.161,1.7 -4.908,1.253 c -1.601,0.302 -3.199,0.611 -4.8,0.899 l 0,0 1.814,-4.398 z"
                   style="fill:url(#linearGradient100);stroke:none"
                   id="path106"
                   inkscape:connector-curvature="0" /></g></g></g></g><g
           id="g108"><g
             id="g110"
             clip-path="url(#clipPath112)"><g
               id="g116"><g
                 id="g118"><path
                   d="m 158.6,389.815 c -1.225,0.356 -2.452,0.675 -3.678,0.977 l 0,0 3.678,-0.977 z"
                   style="fill:url(#linearGradient120);stroke:none"
                   id="path126"
                   inkscape:connector-curvature="0" /></g></g></g></g><g
           id="g128"><g
             id="g130"
             clip-path="url(#clipPath132)"><g
               id="g136"><g
                 id="g138"><path
                   d="m 198.556,359.974 -0.996,-1.083 c -0.647,-0.735 -1.407,-1.362 -2.108,-2.046 l 0,0 c -0.768,-0.605 -1.499,-1.27 -2.307,-1.822 l 0,0 c -0.804,-0.557 -1.595,-1.14 -2.448,-1.615 l 0,0 -1.262,-0.748 -1.309,-0.648 c -0.438,-0.209 -0.869,-0.441 -1.317,-0.632 l 0,0 -1.346,-0.551 c -0.892,-0.391 -1.81,-0.688 -2.728,-0.991 l 0,0 c -0.913,-0.328 -1.844,-0.572 -2.775,-0.813 l 0,0 -1.396,-0.368 -1.408,-0.284 c -0.941,-0.19 -1.879,-0.397 -2.826,-0.512 l 0,0 c -0.945,-0.127 -1.891,-0.296 -2.838,-0.388 l 0,0 -2.843,-0.258 c -0.949,-0.073 -1.897,-0.079 -2.845,-0.121 l 0,0 -1.423,-0.051 -1.417,0.01 -0.657,0.007 0.927,-7.084 0.075,-0.575 0.041,-0.329 0.029,-0.289 0.111,-1.164 0.206,-2.329 0.288,-3.272 6.327,-0.858 c 1.291,-0.171 2.574,-0.408 3.86,-0.618 l 0,0 3.851,-0.668 c 1.286,-0.205 2.559,-0.481 3.836,-0.736 l 0,0 3.83,-0.775 c 2.557,-0.483 5.078,-1.16 7.612,-1.747 l 0,0 1.897,-0.455 1.886,-0.508 3.769,-1.015 1.88,-0.521 1.865,-0.574 3.726,-1.152 c 0.059,-0.017 0.114,-0.036 0.171,-0.053 l 0,0 c 0.103,1.258 0.166,2.498 0.166,3.71 l 0,0 c 0,12.681 -3.442,24.556 -9.438,34.749 l 0,0 c -0.219,-0.277 -0.435,-0.555 -0.666,-0.823"
                   style="fill:url(#linearGradient140);stroke:none"
                   id="path146"
                   inkscape:connector-curvature="0" /></g></g></g></g><g
           id="g148"><g
             id="g150"
             clip-path="url(#clipPath152)"><g
               id="g156"><g
                 id="g158"><path
                   d="m 120.398,325.204 c -2.466,-0.075 -4.927,-0.27 -7.392,-0.399 l 0,0 c -2.464,-0.148 -4.914,-0.44 -7.375,-0.651 l 0,0 c -2.459,-0.23 -4.897,-0.603 -7.349,-0.893 l 0,0 c -1.229,-0.136 -2.444,-0.355 -3.66,-0.556 l 0,0 -3.653,-0.612 c -1.223,-0.182 -2.426,-0.449 -3.634,-0.704 l 0,0 -3.624,-0.765 c -1.215,-0.229 -2.403,-0.56 -3.601,-0.861 l 0,0 -3.59,-0.912 c -1.206,-0.279 -2.38,-0.667 -3.561,-1.024 l 0,0 -0.755,-0.231 c 2.637,-14.068 11.095,-31.077 21.19,-47.492 l 0,0 c 0.849,0.852 1.693,1.709 2.551,2.551 l 0,0 c 1.728,1.692 3.469,3.371 5.241,5.022 l 0,0 c 1.764,1.658 3.558,3.289 5.388,4.879 l 0,0 c 0.908,0.803 1.825,1.598 2.755,2.375 l 0,0 c 0.926,0.787 1.853,1.57 2.801,2.332 l 0,0 c 1.878,1.539 3.79,3.043 5.741,4.498 l 0,0 c 0.976,0.728 1.949,1.461 2.952,2.155 l 0,0 c 0.995,0.705 1.987,1.413 3.01,2.08 l 0,0 c 1.014,0.684 2.03,1.359 3.077,1.997 l 0,0 1.557,0.972 1.588,0.925 1.597,0.918 1.626,0.867 c 1.074,0.595 2.197,1.109 3.307,1.642 l 0,0 c 1.101,0.554 2.263,0.99 3.393,1.488 l 0,0 c 1.143,0.47 2.319,0.875 3.48,1.308 l 0,0 c 2.366,0.757 4.761,1.469 7.235,1.897 l 0,0 c 1.846,0.383 3.739,0.574 5.637,0.676 l 0,0 -0.125,7.601 -0.368,7.853 -5.84,0.504 c -2.463,0.178 -4.928,0.295 -7.393,0.445 l 0,0 c -2.465,0.113 -4.933,0.158 -7.4,0.24 l 0,0 c -2.468,0.047 -4.935,0.015 -7.404,0.042 l 0,0 c -2.467,-0.008 -4.933,-0.115 -7.402,-0.167"
                   style="fill:url(#linearGradient160);stroke:none"
                   id="path166"
                   inkscape:connector-curvature="0" /></g></g></g></g><g
           id="g168"><g
             id="g170"
             clip-path="url(#clipPath172)"><g
               id="g176"><g
                 id="g178"><path
                   d="m 162.594,388.545 c -1.316,0.448 -2.644,0.879 -3.994,1.27 l 0,0 3.994,-1.27 z"
                   style="fill:url(#linearGradient180);stroke:none"
                   id="path186"
                   inkscape:connector-curvature="0" /></g></g></g></g><g
           id="g188"><g
             id="g190"
             clip-path="url(#clipPath192)"><g
               id="g196"><g
                 id="g198"><path
                   d="m 155.712,299.777 -0.819,-0.103 -1.637,-0.207 -1.629,-0.325 c -1.09,-0.181 -2.154,-0.535 -3.231,-0.802 l 0,0 c -1.064,-0.335 -2.13,-0.674 -3.181,-1.061 l 0,0 c -2.09,-0.808 -4.18,-1.647 -6.201,-2.669 l 0,0 -1.523,-0.752 -1.496,-0.808 c -1.009,-0.523 -1.982,-1.114 -2.964,-1.688 l 0,0 c -1.958,-1.158 -3.874,-2.403 -5.765,-3.69 l 0,0 c -1.893,-1.284 -3.763,-2.611 -5.603,-3.983 l 0,0 c -1.837,-1.375 -3.649,-2.788 -5.437,-4.237 l 0,0 c -1.787,-1.453 -3.55,-2.935 -5.31,-4.426 l 0,0 c -1.755,-1.493 -3.494,-3.014 -5.209,-4.559 l 0,0 c -1.722,-1.543 -3.426,-3.105 -5.109,-4.691 l 0,0 c -0.939,-0.876 -1.86,-1.773 -2.787,-2.662 l 0,0 c 14.217,-21.943 30.332,-41.835 37.87,-50.834 l 0,0 c 0.88,1.538 1.786,3.057 2.617,4.617 l 0,0 c 0.878,1.744 1.847,3.444 2.617,5.236 l 0,0 c 0.8,1.778 1.638,3.528 2.345,5.36 l 0,0 1.106,2.719 c 0.344,0.891 0.649,1.834 0.976,2.746 l 0,0 1.926,5.518 c 0.577,1.859 1.081,3.744 1.624,5.611 l 0,0 0.803,2.808 c 0.275,0.932 0.449,1.895 0.681,2.839 l 0,0 1.304,5.689 c 0.423,1.899 0.705,3.828 1.065,5.738 l 0,0 c 0.323,1.918 0.736,3.819 0.952,5.754 l 0,0 0.767,5.782 c 0.294,1.922 0.397,3.868 0.593,5.802 l 0,0 c 0.154,1.937 0.398,3.865 0.525,5.805 l 0,0 0.349,5.82 c 0.052,0.968 0.133,1.938 0.161,2.908 l 0,0 0.068,2.914 0.111,3.861 -0.559,-0.03 z"
                   style="fill:url(#linearGradient200);stroke:none"
                   id="path206"
                   inkscape:connector-curvature="0" /></g></g></g></g><g
           id="g208"><g
             id="g210"
             clip-path="url(#clipPath212)"><g
               id="g216"><g
                 id="g218"><path
                   d="m 164.878,295.532 c -0.088,-1.943 -0.16,-3.891 -0.348,-5.829 l 0,0 -0.482,-5.821 -0.12,-1.453 -0.177,-1.452 -0.352,-2.898 c -0.252,-1.931 -0.461,-3.868 -0.765,-5.791 l 0,0 -0.978,-5.759 -0.489,-2.878 -0.617,-2.855 -1.245,-5.707 c -0.448,-1.893 -1.009,-3.762 -1.507,-5.64 l 0,0 -0.771,-2.815 c -0.133,-0.471 -0.249,-0.941 -0.393,-1.407 l 0,0 -0.461,-1.39 -1.849,-5.553 c -0.577,-1.869 -1.372,-3.627 -2.077,-5.432 l 0,0 c -0.739,-1.796 -1.404,-3.582 -2.205,-5.39 l 0,0 c -0.827,-1.76 -1.612,-3.535 -2.514,-5.256 l 0,0 c -0.442,-0.864 -0.867,-1.734 -1.323,-2.592 l 0,0 -1.415,-2.543 c -0.462,-0.853 -0.957,-1.683 -1.467,-2.507 l 0,0 -1.506,-2.481 2.889,0.463 c 9.64,11.15 32.038,38.199 47.592,65.865 l 0,0 c -0.028,0.045 -0.055,0.091 -0.082,0.137 l 0,0 c -0.386,0.633 -0.748,1.283 -1.168,1.892 l 0,0 -1.232,1.849 -1.312,1.785 c -0.434,0.595 -0.924,1.146 -1.382,1.72 l 0,0 c -0.454,0.582 -0.957,1.117 -1.452,1.658 l 0,0 c -0.963,1.11 -2.033,2.109 -3.097,3.108 l 0,0 -1.664,1.422 c -0.571,0.452 -1.166,0.871 -1.748,1.308 l 0,0 c -0.57,0.456 -1.207,0.808 -1.814,1.205 l 0,0 -0.92,0.584 -0.959,0.513 c -0.649,0.325 -1.263,0.719 -1.939,0.988 l 0,0 -1.994,0.867 c -1.374,0.468 -2.731,0.991 -4.156,1.302 l 0,0 c -0.763,0.226 -1.544,0.378 -2.33,0.514 l 0,0 -0.171,-3.731 z"
                   style="fill:url(#linearGradient220);stroke:none"
                   id="path226"
                   inkscape:connector-curvature="0" /></g></g></g></g><g
           id="g228"><g
             id="g230"
             clip-path="url(#clipPath232)"><g
               id="g236"><g
                 id="g238"><path
                   d="m 135.011,393.036 -3.923,-0.176 -3.905,-0.327 c -1.299,-0.14 -2.59,-0.327 -3.882,-0.487 l 0,0 c -1.289,-0.193 -2.569,-0.446 -3.851,-0.65 l 0,0 c -0.481,-0.09 -0.96,-0.192 -1.441,-0.292 l 0,0 c -9.113,-3.08 -17.369,-8.024 -24.316,-14.376 l 0,0 c 1.085,-0.394 2.168,-0.795 3.239,-1.217 l 0,0 c 1.475,-0.581 2.947,-1.169 4.401,-1.784 l 0,0 c 2.919,-1.221 5.808,-2.463 8.669,-3.745 l 0,0 4.294,-1.904 4.301,-1.851 c 1.428,-0.633 2.88,-1.179 4.32,-1.774 l 0,0 2.163,-0.87 2.182,-0.807 c 1.458,-0.53 2.891,-1.138 4.37,-1.592 l 0,0 4.411,-1.454 4.47,-1.227 c 1.483,-0.453 3.007,-0.699 4.51,-1.054 l 0,0 c 1.51,-0.328 3.014,-0.698 4.546,-0.884 l 0,0 2.762,-0.418 -0.511,3.015 c -0.267,1.643 -0.605,3.269 -0.904,4.906 l 0,0 c -0.288,1.641 -0.674,3.258 -1.014,4.887 l 0,0 c -0.182,0.812 -0.337,1.631 -0.542,2.436 l 0,0 -0.576,2.428 c -0.197,0.809 -0.369,1.625 -0.589,2.427 l 0,0 -0.65,2.411 c -0.223,0.802 -0.419,1.615 -0.665,2.409 l 0,0 -0.712,2.395 c -0.239,0.799 -0.468,1.603 -0.746,2.384 l 0,0 -0.797,2.37 c -0.512,1.59 -1.162,3.138 -1.736,4.711 l 0,0 -3.943,0.132 -3.935,-0.022 z"
                   style="fill:url(#linearGradient240);stroke:none"
                   id="path246"
                   inkscape:connector-curvature="0" /></g></g></g></g><g
           id="g248"><g
             id="g250"
             clip-path="url(#clipPath252)"><g
               id="g256"><g
                 id="g258"><path
                   d="m 71.348,326.048 c 0,-0.207 0.013,-0.421 0.017,-0.629 l 0,0 c 1.587,0.511 3.174,1.024 4.778,1.474 l 0,0 3.604,0.955 c 1.207,0.3 2.397,0.67 3.615,0.909 l 0,0 c 2.43,0.513 4.848,1.094 7.288,1.549 l 0,0 c 2.446,0.418 4.885,0.895 7.339,1.262 l 0,0 c 2.46,0.329 4.913,0.705 7.377,0.991 l 0,0 c 2.468,0.239 4.933,0.534 7.403,0.726 l 0,0 c 2.476,0.151 4.947,0.331 7.423,0.458 l 0,0 7.428,0.229 7.429,0.011 7.426,-0.198 7.411,-0.423 5.325,-0.453 -0.234,2.492 -0.214,2.284 -0.055,0.548 -0.073,0.566 -0.145,1.129 -1.005,7.874 -3.88,0.498 c -1.731,0.171 -3.425,0.565 -5.128,0.895 l 0,0 c -1.701,0.345 -3.413,0.638 -5.075,1.124 l 0,0 c -1.672,0.452 -3.355,0.865 -5.015,1.348 l 0,0 -4.929,1.597 c -1.642,0.538 -3.236,1.196 -4.855,1.789 l 0,0 c -1.622,0.586 -3.204,1.259 -4.79,1.921 l 0,0 c -1.589,0.656 -3.177,1.317 -4.739,2.028 l 0,0 c -1.563,0.703 -3.148,1.378 -4.693,2.109 l 0,0 -4.655,2.162 -4.653,2.153 c -1.552,0.717 -3.11,1.413 -4.673,2.094 l 0,0 c -1.554,0.709 -3.137,1.336 -4.712,1.995 l 0,0 c -0.785,0.328 -1.591,0.607 -2.386,0.914 l 0,0 c -0.425,0.157 -0.848,0.32 -1.272,0.477 l 0,0 C 77.635,358.874 71.348,343.196 71.348,326.048"
                   style="fill:url(#linearGradient260);stroke:none"
                   id="path266"
                   inkscape:connector-curvature="0" /></g></g></g></g></g></g></g></svg>