<?xml version="1.0" encoding="utf-8"?>
<!-- Generator: Adobe Illustrator 16.0.0, SVG Export Plug-In . SVG Version: 6.00 Build 0)  -->
<!DOCTYPE svg PUBLIC "-//W3C//DTD SVG 1.1//EN" "http://www.w3.org/Graphics/SVG/1.1/DTD/svg11.dtd" [
	<!ENTITY ns_extend "http://ns.adobe.com/Extensibility/1.0/">
	<!ENTITY ns_ai "http://ns.adobe.com/AdobeIllustrator/10.0/">
	<!ENTITY ns_graphs "http://ns.adobe.com/Graphs/1.0/">
	<!ENTITY ns_vars "http://ns.adobe.com/Variables/1.0/">
	<!ENTITY ns_imrep "http://ns.adobe.com/ImageReplacement/1.0/">
	<!ENTITY ns_sfw "http://ns.adobe.com/SaveForWeb/1.0/">
	<!ENTITY ns_custom "http://ns.adobe.com/GenericCustomNamespace/1.0/">
	<!ENTITY ns_adobe_xpath "http://ns.adobe.com/XPath/1.0/">
]>
<svg version="1.1" id="Layer_1" xmlns:x="&ns_extend;" xmlns:i="&ns_ai;" xmlns:graph="&ns_graphs;"
	 xmlns="http://www.w3.org/2000/svg" xmlns:xlink="http://www.w3.org/1999/xlink" x="0px" y="0px" width="732.345px"
	 height="225.083px" viewBox="0 0 732.345 225.083" enable-background="new 0 0 732.345 225.083" xml:space="preserve">
<metadata>
	<sfw  xmlns="&ns_sfw;">
		<slices></slices>
		<sliceSourceBounds  height="225.083" width="730.333" x="56.17" y="-410.901" bottomLeftOrigin="true"></sliceSourceBounds>
	</sfw>
</metadata>
<g>
	<path fill="#142133" stroke="#142133" stroke-width="5" stroke-miterlimit="10" d="M209.689,158.724
		c-5.142-8.568-8.227-16.994-9.255-25.279c0-59.47,0-89.148,0-89.034h11.998v52.444c5.083-6.227,10.768-10.869,17.052-13.926
		c6.284-3.055,13.167-4.584,20.652-4.584c13.252,0,24.595,4.828,34.02,14.482c9.426,9.654,14.14,21.367,14.14,35.133
		c0,13.541-4.743,25.107-14.226,34.707c-9.483,9.596-20.909,14.395-34.277,14.395c-7.656,0-14.839-1.469-21.551-4.412
		C221.527,169.708,215.345,165.066,209.689,158.724z M248.766,165.494c6.796,0,13.038-1.67,18.723-5.012
		c5.685-3.342,10.21-7.984,13.583-13.926c3.37-5.941,5.056-12.281,5.056-19.023c0-6.627-1.7-12.982-5.099-19.066
		c-3.399-6.084-7.969-10.798-13.71-14.14c-5.742-3.342-11.869-5.013-18.381-5.013c-6.628,0-12.912,1.671-18.853,5.013
		c-5.942,3.342-10.512,7.884-13.711,13.625c-3.199,5.742-4.798,12.156-4.798,19.238c0,10.914,3.599,20.025,10.796,27.336
		C229.569,161.839,238.367,165.494,248.766,165.494z"/>
	<path fill="#142133" stroke="#142133" stroke-width="5" stroke-miterlimit="10" d="M366.936,78.345
		c14.451,0,26.449,5.227,35.99,15.682c8.797,9.541,13.197,20.881,13.197,34.02c0.113,32.449,0.113,48.932,0,49.445
		c-5.483,0-9.741,0-12.77,0c0-0.398,0-7.512,0-21.338c-6.682,12.455-18.823,19.424-36.418,20.908
		c-14.397,0-26.151-4.896-35.263-14.695c-9.113-9.797-13.667-21.236-13.667-34.32c0-13.025,4.313-24.336,12.939-33.934
		C340.484,83.602,352.48,78.345,366.936,78.345z M366.936,90.17c-9.997,0-18.596,3.714-25.794,11.14
		c-7.198,7.428-10.796,16.396-10.796,26.908c0,6.799,1.841,13.34,5.527,19.625c3.685,6.283,9.926,11.598,18.724,15.938
		c22.051,4.914,37.732-5.111,47.045-30.078c0.514-7.998-0.343-15.652-2.57-22.965c-1.601-3.313-3.801-6.456-6.599-9.427
		C385.444,93.884,376.932,90.17,366.936,90.17z"/>
	<path fill="#142133" stroke="#142133" stroke-width="5" stroke-miterlimit="10" d="M437.717,46.639h12.169v130.339h-12.169V46.639z
		"/>
	<path fill="#142133" stroke="#142133" stroke-width="5" stroke-miterlimit="10" d="M473.023,46.639h12.169v130.339h-12.169V46.639z
		"/>
	<path fill="#142133" stroke="#142133" stroke-width="5" stroke-miterlimit="10" d="M589.307,143.558l10.112,5.398
		c-3.257,6.568-7.085,11.854-11.482,15.852c-4.399,4-9.341,7.043-14.825,9.127c-5.483,2.086-11.684,3.127-18.595,3.127
		c-15.312,0-27.279-5.012-35.905-15.039c-8.627-10.025-12.94-21.35-12.94-33.977c0-11.939,3.656-22.565,10.97-31.877
		c9.254-11.882,21.679-17.824,37.275-17.824c15.938,0,28.707,6.084,38.305,18.253c6.798,8.569,10.227,19.253,10.283,32.048h-84.407
		c0.228,10.969,3.713,19.953,10.455,26.951c6.74,7,15.052,10.496,24.937,10.496c4.798,0,9.455-0.842,13.968-2.525
		c4.513-1.686,8.355-3.9,11.525-6.643C582.152,154.183,585.593,149.726,589.307,143.558z M589.307,118.277
		c-1.599-6.455-3.941-11.61-7.026-15.466c-3.084-3.856-7.169-6.969-12.254-9.341c-5.085-2.37-10.427-3.556-16.024-3.556
		c-9.198,0-17.111,2.971-23.736,8.913c-4.8,4.342-8.428,10.826-10.884,19.451H589.307z"/>
	<path fill="#142133" stroke="#142133" stroke-width="5" stroke-miterlimit="10" d="M620.414,133.958v-11.311
		c0.914-5.654,2.229-10.254,3.942-13.796c3.997-9.825,9.368-17.023,16.108-21.594c6.742-4.57,12.34-6.856,16.796-6.856
		c3.313,0,6.856,1.086,10.627,3.257l-6.256,10.111c-5.313-1.941-10.583-0.371-15.811,4.713c-5.227,5.085-8.841,10.626-10.839,16.625
		c-1.486,5.313-2.229,15.283-2.229,29.906v31.793h-12.34V133.958z"/>
	<path fill="#142133" stroke="#142133" stroke-width="5" stroke-miterlimit="10" d="M725.387,91.028l-7.711,8.055
		c-6.514-6.284-12.827-9.427-18.938-9.427c-3.942,0-7.313,1.286-10.112,3.856c-2.8,2.571-4.2,5.627-4.2,9.169
		c0,2.972,1.172,5.826,3.515,8.569c2.284,2.915,7.112,6.256,14.482,10.026c9.025,4.627,15.139,9.113,18.337,13.453
		c3.143,4.4,4.714,9.342,4.714,14.826c0,7.656-2.699,14.152-8.099,19.494c-5.398,5.344-12.153,8.012-20.265,8.012
		c-5.429,0-10.613-1.154-15.553-3.469c-4.943-2.314-9.014-5.557-12.212-9.727l7.626-8.656c6.17,6.971,12.711,10.455,19.624,10.455
		c4.799,0,8.896-1.557,12.297-4.67c3.398-3.113,5.099-6.756,5.099-10.926c0-3.484-1.113-6.568-3.342-9.256
		c-2.229-2.684-7.283-6.053-15.168-10.109c-8.513-4.287-14.282-8.6-17.309-12.941c-3.086-4.227-4.629-9.083-4.629-14.567
		c0-7.141,2.443-13.068,7.327-17.782c4.884-4.712,11.012-7.069,18.382-7.069C707.877,78.345,716.589,82.574,725.387,91.028z"/>
</g>
<g>
	<path fill="#142133" d="M81.003-1.591c-45.517,0-82.418,36.9-82.418,82.42c0,48.669,82.418,142.663,82.418,142.663
		s82.418-90.379,82.418-142.663C163.422,35.309,126.522-1.591,81.003-1.591z"/>
	<g>
		<linearGradient id="SVGID_1_" gradientUnits="userSpaceOnUse" x1="105.7207" y1="101.3267" x2="148.5337" y2="101.3267">
			<stop  offset="0" style="stop-color:#EF4136"/>
			<stop  offset="1" style="stop-color:#F15A29"/>
		</linearGradient>
		<path fill="url(#SVGID_1_)" d="M145.801,89.935c-1.257-0.329-2.528-0.61-3.801-0.881l-3.811-0.83
			c-1.267-0.29-2.544-0.531-3.823-0.766l-3.831-0.731l-1.913-0.366l-1.924-0.312c-2.566-0.404-5.122-0.859-7.694-1.22l-3.856-0.543
			c-1.287-0.17-2.567-0.387-3.857-0.519c-1.86-0.201-3.715-0.425-5.57-0.647l0.394,7.164c0.07,2.594,0.086,5.189,0.114,7.786
			l0.793,0.124l1.215,0.192l1.199,0.284l2.394,0.581l2.342,0.773c0.788,0.238,1.54,0.572,2.295,0.898
			c0.748,0.339,1.527,0.61,2.246,1.01l2.18,1.145c0.722,0.39,1.397,0.858,2.096,1.285l1.038,0.655l0.989,0.727
			c0.651,0.493,1.331,0.95,1.946,1.486l1.849,1.601c0.612,0.534,1.166,1.133,1.749,1.697l0.863,0.858l0.807,0.907
			c0.531,0.613,1.095,1.193,1.593,1.83l1.499,1.9c0.497,0.635,0.932,1.314,1.4,1.969l0.689,0.988l0.347,0.555
			c5.06-10.002,8.961-19.882,10.777-28.917L145.801,89.935z"/>
		<linearGradient id="SVGID_2_" gradientUnits="userSpaceOnUse" x1="89.8926" y1="32.4048" x2="135.1055" y2="32.4048">
			<stop  offset="0" style="stop-color:#EF4136"/>
			<stop  offset="1" style="stop-color:#F15A29"/>
		</linearGradient>
		<path fill="url(#SVGID_2_)" d="M89.893,14.313l1.813,4.398l0.942,2.288l0.48,1.141l0.411,1.165l1.651,4.668l0.837,2.335
			c0.301,0.772,0.521,1.568,0.762,2.357l1.429,4.75l0.716,2.378l0.358,1.19l0.304,1.204l1.168,4.824
			c0.276,1.162,0.558,2.322,0.833,3.485l1.309-0.016l1.262-0.013l1.257-0.072c0.837-0.053,1.674-0.083,2.509-0.155l2.492-0.235
			c0.833-0.065,1.646-0.233,2.469-0.334c0.827-0.096,1.638-0.254,2.446-0.421c0.812-0.152,1.621-0.317,2.411-0.535
			c0.794-0.207,1.601-0.379,2.37-0.654c0.773-0.26,1.565-0.479,2.311-0.796c0.756-0.297,1.526-0.573,2.245-0.942l1.098-0.519
			c0.36-0.181,0.706-0.388,1.061-0.579c0.722-0.37,1.39-0.816,2.062-1.262c0.344-0.211,0.669-0.448,0.982-0.702l0.957-0.737
			c0.598-0.537,1.219-1.055,1.784-1.63l0.852-0.864c0.278-0.294,0.529-0.612,0.797-0.918c0.3-0.329,0.57-0.683,0.835-1.043
			l-2.96-2.897l-2.019-1.771c-0.677-0.586-1.341-1.195-2.032-1.765l-2.126-1.653c-0.714-0.545-1.41-1.12-2.143-1.642l-2.233-1.517
			c-0.75-0.496-1.483-1.028-2.253-1.497l-2.329-1.375c-0.78-0.456-1.553-0.927-2.356-1.34l-2.429-1.203
			c-0.814-0.394-1.612-0.82-2.438-1.188c-0.832-0.355-1.667-0.702-2.506-1.04c-0.839-0.336-1.673-0.694-2.519-1.016L99.6,16.465
			l-4.907-1.252C93.091,14.91,91.494,14.601,89.893,14.313z"/>
		<linearGradient id="SVGID_3_" gradientUnits="userSpaceOnUse" x1="95.9224" y1="15.9771" x2="99.5996" y2="15.9771">
			<stop  offset="0" style="stop-color:#EF4136"/>
			<stop  offset="1" style="stop-color:#F15A29"/>
		</linearGradient>
		<path fill="url(#SVGID_3_)" d="M99.6,16.465c-1.225-0.355-2.451-0.675-3.677-0.976L99.6,16.465z"/>
		<linearGradient id="SVGID_4_" gradientUnits="userSpaceOnUse" x1="103.3066" y1="64.7134" x2="149.6597" y2="64.7134">
			<stop  offset="0" style="stop-color:#EF4136"/>
			<stop  offset="1" style="stop-color:#F15A29"/>
		</linearGradient>
		<path fill="url(#SVGID_4_)" d="M136.452,49.436c-0.769,0.604-1.499,1.27-2.307,1.821c-0.804,0.558-1.595,1.141-2.448,1.616
			l-1.261,0.747l-1.309,0.649c-0.439,0.209-0.87,0.441-1.317,0.632l-1.347,0.551c-0.892,0.391-1.81,0.688-2.728,0.991
			c-0.913,0.328-1.844,0.572-2.774,0.813l-1.397,0.367l-1.408,0.285c-0.94,0.189-1.879,0.396-2.826,0.512
			c-0.945,0.127-1.89,0.296-2.837,0.388l-2.844,0.257c-0.949,0.074-1.896,0.079-2.845,0.122l-1.422,0.051l-1.418-0.01l-0.657-0.006
			l0.927,7.083l0.076,0.575l0.04,0.328l0.029,0.29l0.111,1.164l0.206,2.329l0.29,3.271l6.326,0.858
			c1.291,0.171,2.574,0.409,3.86,0.619l3.851,0.667c1.286,0.206,2.559,0.481,3.837,0.737l3.829,0.774
			c2.557,0.483,5.078,1.16,7.612,1.747l1.897,0.455l1.885,0.508l3.77,1.016l1.88,0.521l1.865,0.575l3.726,1.152
			c0.058,0.017,0.114,0.036,0.17,0.053c0.103-1.258,0.166-2.499,0.166-3.711c0-12.68-3.442-24.555-9.438-34.748
			c-0.219,0.276-0.436,0.555-0.666,0.823l-0.997,1.082C137.913,48.124,137.153,48.75,136.452,49.436z"/>
		<linearGradient id="SVGID_5_" gradientUnits="userSpaceOnUse" x1="13.2046" y1="108.5425" x2="97.3301" y2="108.5425">
			<stop  offset="0" style="stop-color:#EF4136"/>
			<stop  offset="1" style="stop-color:#F15A29"/>
		</linearGradient>
		<path fill="url(#SVGID_5_)" d="M42.186,128.603c1.764-1.658,3.558-3.289,5.388-4.879c0.909-0.803,1.825-1.598,2.755-2.375
			c0.926-0.787,1.852-1.57,2.8-2.332c1.877-1.539,3.79-3.043,5.741-4.498c0.976-0.729,1.948-1.461,2.952-2.154
			c0.995-0.705,1.987-1.414,3.01-2.081c1.014-0.683,2.03-1.359,3.077-1.997l1.558-0.972l1.588-0.925l1.596-0.918l1.626-0.866
			c1.074-0.596,2.197-1.11,3.307-1.643c1.101-0.554,2.263-0.99,3.393-1.488c1.143-0.471,2.319-0.875,3.48-1.309
			c2.366-0.757,4.761-1.469,7.235-1.896c1.847-0.383,3.739-0.574,5.637-0.676l-0.125-7.602l-0.368-7.853l-5.84-0.504
			c-2.463-0.177-4.928-0.294-7.393-0.445c-2.466-0.112-4.933-0.158-7.4-0.24c-2.468-0.046-4.935-0.014-7.404-0.041
			c-2.467,0.007-4.933,0.114-7.402,0.166c-2.467,0.075-4.927,0.27-7.393,0.4c-2.464,0.147-4.914,0.438-7.375,0.65
			c-2.458,0.23-4.896,0.604-7.349,0.894c-1.229,0.135-2.444,0.354-3.66,0.556l-3.652,0.611c-1.223,0.182-2.427,0.45-3.634,0.705
			l-3.625,0.764c-1.215,0.23-2.403,0.56-3.601,0.862l-3.59,0.912c-1.206,0.279-2.379,0.667-3.561,1.024l-0.754,0.23
			c2.637,14.069,11.094,31.078,21.189,47.492c0.85-0.852,1.693-1.709,2.551-2.551C38.672,131.933,40.414,130.253,42.186,128.603z"/>
		<linearGradient id="SVGID_6_" gradientUnits="userSpaceOnUse" x1="99.5996" y1="17.1001" x2="103.5942" y2="17.1001">
			<stop  offset="0" style="stop-color:#EF4136"/>
			<stop  offset="1" style="stop-color:#F15A29"/>
		</linearGradient>
		<path fill="url(#SVGID_6_)" d="M99.6,16.465l3.995,1.27C102.278,17.287,100.95,16.857,99.6,16.465z"/>
		<linearGradient id="SVGID_7_" gradientUnits="userSpaceOnUse" x1="38.811" y1="150.2358" x2="97.2705" y2="150.2358">
			<stop  offset="0" style="stop-color:#EF4136"/>
			<stop  offset="1" style="stop-color:#F15A29"/>
		</linearGradient>
		<path fill="url(#SVGID_7_)" d="M79.298,189.382c0.877-1.744,1.847-3.443,2.617-5.236c0.8-1.777,1.638-3.527,2.345-5.359
			l1.106-2.719c0.344-0.891,0.649-1.834,0.976-2.746l1.926-5.518c0.577-1.859,1.082-3.744,1.625-5.611l0.802-2.809
			c0.275-0.932,0.45-1.895,0.681-2.838l1.304-5.689c0.423-1.898,0.706-3.828,1.066-5.738c0.323-1.918,0.736-3.818,0.952-5.754
			l0.767-5.781c0.293-1.922,0.397-3.869,0.593-5.803c0.154-1.938,0.398-3.865,0.525-5.805l0.349-5.82
			c0.051-0.969,0.132-1.938,0.161-2.908l0.067-2.914l0.111-3.861l-0.559,0.029l-0.818,0.104l-1.638,0.207l-1.628,0.325
			c-1.09,0.181-2.154,0.536-3.231,0.802c-1.064,0.335-2.13,0.674-3.181,1.061c-2.089,0.808-4.181,1.647-6.201,2.67l-1.522,0.75
			l-1.496,0.809c-1.008,0.523-1.982,1.115-2.964,1.688c-1.958,1.158-3.874,2.404-5.764,3.689c-1.894,1.285-3.763,2.611-5.604,3.984
			c-1.837,1.375-3.649,2.789-5.438,4.236c-1.786,1.453-3.549,2.936-5.31,4.426c-1.755,1.494-3.494,3.014-5.209,4.561
			c-1.722,1.541-3.426,3.104-5.108,4.689c-0.939,0.877-1.86,1.773-2.787,2.662C53.028,165.109,69.143,185.001,76.682,194
			C77.561,192.462,78.467,190.943,79.298,189.382z"/>
		<linearGradient id="SVGID_8_" gradientUnits="userSpaceOnUse" x1="82.8169" y1="150.6069" x2="133.2974" y2="150.6069">
			<stop  offset="0" style="stop-color:#EF4136"/>
			<stop  offset="1" style="stop-color:#F15A29"/>
		</linearGradient>
		<path fill="url(#SVGID_8_)" d="M133.297,127.869c-0.027-0.045-0.055-0.09-0.082-0.137c-0.386-0.633-0.748-1.283-1.168-1.893
			l-1.231-1.848l-1.312-1.785c-0.434-0.596-0.924-1.146-1.382-1.721c-0.453-0.582-0.957-1.117-1.451-1.658
			c-0.963-1.109-2.034-2.109-3.098-3.107l-1.664-1.422c-0.57-0.453-1.167-0.871-1.747-1.309c-0.571-0.455-1.207-0.807-1.814-1.205
			l-0.92-0.583l-0.959-0.514c-0.649-0.324-1.263-0.718-1.938-0.987l-1.995-0.868c-1.373-0.468-2.731-0.991-4.155-1.301
			c-0.764-0.227-1.545-0.378-2.331-0.514l-0.17,3.731c-0.088,1.943-0.161,3.89-0.349,5.83l-0.482,5.82l-0.119,1.453l-0.177,1.451
			l-0.352,2.898c-0.253,1.932-0.462,3.869-0.766,5.791l-0.979,5.76l-0.489,2.877l-0.617,2.855l-1.245,5.707
			c-0.448,1.893-1.009,3.762-1.507,5.641l-0.77,2.814c-0.134,0.471-0.25,0.941-0.394,1.406l-0.461,1.391l-1.848,5.553
			c-0.578,1.869-1.372,3.627-2.077,5.432c-0.739,1.797-1.404,3.582-2.205,5.391c-0.827,1.76-1.612,3.535-2.514,5.256
			c-0.442,0.863-0.866,1.734-1.323,2.592l-1.415,2.543c-0.463,0.854-0.958,1.684-1.468,2.508l-1.506,2.48l2.89-0.463
			C95.347,182.583,117.744,155.535,133.297,127.869z"/>
		<linearGradient id="SVGID_9_" gradientUnits="userSpaceOnUse" x1="34.6924" y1="31.6782" x2="93.3311" y2="31.6782">
			<stop  offset="0" style="stop-color:#EF4136"/>
			<stop  offset="1" style="stop-color:#F15A29"/>
		</linearGradient>
		<path fill="url(#SVGID_9_)" d="M76.011,13.244l-3.924,0.176l-3.905,0.327c-1.298,0.141-2.589,0.327-3.881,0.487
			c-1.29,0.193-2.569,0.446-3.852,0.65c-0.48,0.09-0.96,0.192-1.44,0.292c-9.114,3.08-17.37,8.024-24.317,14.375
			c1.085,0.395,2.168,0.796,3.239,1.218c1.476,0.581,2.948,1.167,4.401,1.783c2.919,1.221,5.808,2.462,8.669,3.745l4.295,1.903
			l4.3,1.852c1.429,0.633,2.88,1.179,4.321,1.773l2.164,0.871l2.181,0.807c1.458,0.529,2.892,1.137,4.371,1.591l4.411,1.455
			l4.47,1.227c1.482,0.453,3.007,0.699,4.51,1.053c1.509,0.329,3.014,0.699,4.546,0.885l2.762,0.417l-0.511-3.015
			c-0.267-1.642-0.604-3.269-0.904-4.906c-0.288-1.641-0.673-3.257-1.014-4.886c-0.181-0.812-0.337-1.631-0.542-2.437l-0.576-2.429
			c-0.198-0.808-0.369-1.624-0.59-2.426l-0.649-2.411c-0.223-0.802-0.419-1.614-0.665-2.409l-0.712-2.395
			c-0.24-0.799-0.468-1.603-0.746-2.384l-0.797-2.37c-0.513-1.59-1.162-3.138-1.736-4.71l-3.943-0.132L76.011,13.244z"/>
		<linearGradient id="SVGID_10_" gradientUnits="userSpaceOnUse" x1="12.3481" y1="58.1177" x2="96.2114" y2="58.1177">
			<stop  offset="0" style="stop-color:#EF4136"/>
			<stop  offset="1" style="stop-color:#F15A29"/>
		</linearGradient>
		<path fill="url(#SVGID_10_)" d="M12.364,80.861c1.588-0.51,3.174-1.023,4.779-1.474l3.604-0.955
			c1.207-0.3,2.396-0.669,3.615-0.909c2.431-0.512,4.848-1.094,7.288-1.549c2.447-0.417,4.885-0.895,7.34-1.262
			c2.459-0.328,4.914-0.705,7.376-0.991c2.469-0.239,4.933-0.533,7.404-0.726c2.475-0.151,4.947-0.331,7.423-0.458l7.428-0.229
			l7.43-0.01l7.424,0.197l7.412,0.423l5.325,0.453l-0.234-2.493l-0.214-2.284l-0.055-0.548l-0.072-0.565l-0.146-1.13l-1.005-7.875
			l-3.88-0.497c-1.731-0.171-3.425-0.565-5.128-0.895c-1.701-0.346-3.413-0.639-5.075-1.125c-1.673-0.452-3.356-0.865-5.015-1.348
			l-4.93-1.598c-1.641-0.537-3.235-1.196-4.854-1.789c-1.622-0.585-3.204-1.259-4.79-1.921c-1.589-0.656-3.176-1.317-4.739-2.028
			c-1.564-0.703-3.148-1.377-4.693-2.108l-4.655-2.163l-4.653-2.153c-1.551-0.717-3.109-1.413-4.672-2.094
			c-1.553-0.708-3.136-1.336-4.712-1.995c-0.786-0.328-1.591-0.607-2.387-0.914c-0.424-0.156-0.847-0.319-1.271-0.477
			C18.635,47.406,12.348,63.084,12.348,80.231C12.348,80.439,12.361,80.653,12.364,80.861z"/>
	</g>
</g>
</svg>
