<?xml version="1.0" encoding="utf-8"?>
<!-- Generator: Adobe Illustrator 16.0.0, SVG Export Plug-In . SVG Version: 6.00 Build 0)  -->
<!DOCTYPE svg PUBLIC "-//W3C//DTD SVG 1.1//EN" "http://www.w3.org/Graphics/SVG/1.1/DTD/svg11.dtd" [
	<!ENTITY ns_extend "http://ns.adobe.com/Extensibility/1.0/">
	<!ENTITY ns_ai "http://ns.adobe.com/AdobeIllustrator/10.0/">
	<!ENTITY ns_graphs "http://ns.adobe.com/Graphs/1.0/">
	<!ENTITY ns_vars "http://ns.adobe.com/Variables/1.0/">
	<!ENTITY ns_imrep "http://ns.adobe.com/ImageReplacement/1.0/">
	<!ENTITY ns_sfw "http://ns.adobe.com/SaveForWeb/1.0/">
	<!ENTITY ns_custom "http://ns.adobe.com/GenericCustomNamespace/1.0/">
	<!ENTITY ns_adobe_xpath "http://ns.adobe.com/XPath/1.0/">
]>
<svg version="1.1" id="Layer_1" xmlns:x="&ns_extend;" xmlns:i="&ns_ai;" xmlns:graph="&ns_graphs;"
	 xmlns="http://www.w3.org/2000/svg" xmlns:xlink="http://www.w3.org/1999/xlink" x="0px" y="0px" width="732.345px"
	 height="225.083px" viewBox="0 0 732.345 225.083" enable-background="new 0 0 732.345 225.083" xml:space="preserve">
<metadata>
	<sfw  xmlns="&ns_sfw;">
		<slices></slices>
		<sliceSourceBounds  height="225.083" width="730.333" x="57.585" y="-412.492" bottomLeftOrigin="true"></sliceSourceBounds>
	</sfw>
</metadata>
<g>
	<g>
		<path fill="#FFFFFF" d="M211.104,160.316c-5.141-8.568-8.227-16.995-9.255-25.279c0-59.471,0-89.148,0-89.035h11.998v52.444
			c5.083-6.227,10.768-10.869,17.052-13.926c6.285-3.055,13.167-4.584,20.652-4.584c13.252,0,24.595,4.828,34.02,14.482
			c9.427,9.654,14.141,21.367,14.141,35.133c0,13.54-4.743,25.107-14.227,34.706c-9.482,9.597-20.908,14.396-34.276,14.396
			c-7.656,0-14.839-1.47-21.551-4.413C222.942,171.299,216.76,166.657,211.104,160.316z M250.181,167.085
			c6.796,0,13.038-1.671,18.723-5.013c5.685-3.341,10.21-7.983,13.583-13.925c3.37-5.941,5.056-12.282,5.056-19.024
			c0-6.626-1.7-12.981-5.099-19.065c-3.4-6.084-7.97-10.798-13.711-14.14c-5.742-3.342-11.869-5.013-18.381-5.013
			c-6.628,0-12.912,1.671-18.853,5.013c-5.942,3.342-10.512,7.884-13.712,13.625c-3.199,5.742-4.798,12.155-4.798,19.238
			c0,10.913,3.599,20.025,10.796,27.336C230.984,163.431,239.781,167.085,250.181,167.085z"/>
		<path fill="#FFFFFF" d="M251.208,181.154c-7.97,0-15.559-1.556-22.555-4.624c-7.009-3.07-13.542-7.966-19.416-14.55l-0.278-0.378
			c-5.298-8.831-8.526-17.665-9.592-26.258l-0.019-0.308V43.501l16.998,0v48.465c4.142-4.106,8.65-7.356,13.458-9.695
			c6.602-3.209,13.918-4.836,21.746-4.836c13.891,0,25.939,5.126,35.809,15.236c9.854,10.093,14.852,22.501,14.852,36.88
			c0,14.155-5.029,26.424-14.948,36.463C277.337,176.06,265.207,181.154,251.208,181.154z M213.126,158.827
			c5.35,5.956,11.249,10.371,17.534,13.124c6.36,2.789,13.273,4.203,20.548,4.203c12.613,0,23.547-4.594,32.498-13.652
			c8.961-9.07,13.505-20.156,13.505-32.949c0-13.027-4.518-24.261-13.429-33.387c-8.894-9.11-19.737-13.729-32.231-13.729
			c-7.064,0-13.646,1.458-19.56,4.333c-5.926,2.883-11.38,7.344-16.208,13.258l-4.437,5.435v-56.96h-6.998v86.378
			C205.34,142.664,208.292,150.719,213.126,158.827z M250.181,169.585c-11.046,0-20.526-3.941-28.177-11.715
			c-7.64-7.761-11.514-17.548-11.514-29.09c0-7.482,1.721-14.364,5.114-20.455c3.415-6.125,8.351-11.033,14.67-14.587
			c6.291-3.539,13.046-5.334,20.078-5.334c6.929,0,13.537,1.801,19.639,5.353c6.104,3.553,11.029,8.627,14.635,15.081
			c3.594,6.435,5.417,13.259,5.417,20.285c0,7.147-1.811,13.963-5.381,20.258c-3.579,6.304-8.454,11.299-14.491,14.847
			C264.123,167.783,257.397,169.585,250.181,169.585z M250.352,93.405c-6.163,0-12.093,1.579-17.626,4.692
			c-5.505,3.096-9.795,7.356-12.754,12.663c-2.974,5.337-4.481,11.401-4.481,18.021c0,10.326,3.296,18.694,10.078,25.582
			c6.771,6.879,14.821,10.223,24.614,10.223c6.314,0,12.187-1.57,17.456-4.668c5.271-3.098,9.536-7.473,12.676-13.004
			c3.138-5.532,4.729-11.519,4.729-17.79c0-6.162-1.608-12.167-4.781-17.846c-3.164-5.661-7.466-10.102-12.786-13.199
			C262.146,94.977,256.386,93.405,250.352,93.405z"/>
	</g>
	<g>
		<path fill="#FFFFFF" d="M368.351,79.937c14.451,0,26.449,5.227,35.99,15.682c8.797,9.541,13.197,20.88,13.197,34.019
			c0.113,32.45,0.113,48.932,0,49.445c-5.483,0-9.741,0-12.77,0c0-0.398,0-7.511,0-21.337
			c-6.682,12.455-18.823,19.424-36.418,20.908c-14.397,0-26.151-4.897-35.263-14.696c-9.113-9.797-13.668-21.236-13.668-34.32
			c0-13.025,4.313-24.336,12.939-33.934C341.899,85.193,353.896,79.937,368.351,79.937z M368.351,91.762
			c-9.997,0-18.597,3.714-25.794,11.14c-7.199,7.428-10.797,16.396-10.797,26.907c0,6.799,1.842,13.34,5.527,19.625
			c3.685,6.283,9.926,11.598,18.724,15.938c22.051,4.914,37.732-5.112,47.045-30.079c0.514-7.997-0.343-15.651-2.57-22.965
			c-1.601-3.313-3.801-6.456-6.599-9.427C386.859,95.476,378.347,91.762,368.351,91.762z"/>
		<path fill="#FFFFFF" d="M419.547,181.583h-17.278v-15.711c-7.521,8.89-18.82,14.018-33.708,15.273l-0.21,0.009
			c-15.054,0-27.534-5.213-37.094-15.494c-9.513-10.227-14.337-22.347-14.337-36.022c0-13.601,4.569-25.58,13.58-35.605
			c9.998-11.015,22.73-16.596,37.851-16.596c15.117,0,27.848,5.55,37.837,16.497c9.188,9.965,13.851,21.98,13.851,35.704
			c0.171,48.943,0.049,49.496-0.059,49.983L419.547,181.583z M407.269,176.583h7.828c0.039-4.546,0.046-16.95-0.059-46.937
			c0-12.437-4.218-23.312-12.535-32.333c-9.139-10.014-20.307-14.876-34.152-14.876c-13.844,0-25.011,4.889-34.14,14.947
			c-8.153,9.07-12.291,19.925-12.291,32.253c0,12.371,4.374,23.346,12.999,32.617c8.674,9.329,19.577,13.876,33.327,13.899
			c16.795-1.439,28.021-7.849,34.32-19.59l4.703-8.767V176.583z M366.375,169.084c-0.001,0-0.001,0-0.002,0
			c-3.45,0-7.119-0.428-10.906-1.271l-0.293-0.065l-0.269-0.133c-9.201-4.54-15.854-10.231-19.774-16.916
			c-3.896-6.644-5.871-13.672-5.871-20.89c0-11.135,3.87-20.773,11.502-28.647c7.653-7.896,16.935-11.9,27.589-11.9
			c10.664,0,19.866,4.011,27.352,11.922c2.965,3.148,5.33,6.53,7.034,10.057l0.141,0.359c2.305,7.567,3.204,15.593,2.674,23.854
			l-0.023,0.368l-0.129,0.346C397.251,158.009,384.121,169.084,366.375,169.084z M356.847,162.997
			c3.326,0.722,6.529,1.088,9.526,1.088c15.571,0,26.764-9.591,34.21-29.318c0.438-7.461-0.379-14.699-2.433-21.522
			c-1.477-3.006-3.522-5.908-6.084-8.628c-6.592-6.966-14.351-10.354-23.716-10.354c-9.379,0-17.229,3.396-23.999,10.38
			c-6.791,7.006-10.092,15.239-10.092,25.167c0,6.317,1.744,12.494,5.184,18.36C342.824,153.934,348.679,158.921,356.847,162.997z"
			/>
	</g>
	<g>
		<path fill="#FFFFFF" d="M439.132,48.23h12.169v130.339h-12.169V48.23z"/>
		<path fill="#FFFFFF" d="M453.801,181.069h-17.169V45.73h17.169V181.069z M441.632,176.069h7.169V50.73h-7.169V176.069z"/>
	</g>
	<g>
		<path fill="#FFFFFF" d="M474.438,48.23h12.169v130.339h-12.169V48.23z"/>
		<path fill="#FFFFFF" d="M489.107,181.069h-17.169V45.73h17.169V181.069z M476.938,176.069h7.169V50.73h-7.169V176.069z"/>
	</g>
	<g>
		<path fill="#FFFFFF" d="M590.722,145.149l10.112,5.398c-3.257,6.569-7.085,11.854-11.482,15.853
			c-4.399,4-9.341,7.042-14.825,9.127c-5.483,2.086-11.684,3.127-18.595,3.127c-15.312,0-27.279-5.013-35.905-15.039
			c-8.627-10.025-12.94-21.35-12.94-33.978c0-11.938,3.656-22.564,10.97-31.877c9.254-11.882,21.679-17.824,37.275-17.824
			c15.938,0,28.707,6.084,38.305,18.253c6.798,8.569,10.227,19.252,10.283,32.048h-84.407c0.228,10.969,3.713,19.953,10.455,26.95
			c6.74,7,15.052,10.496,24.937,10.496c4.798,0,9.455-0.841,13.968-2.525c4.513-1.686,8.355-3.9,11.525-6.643
			C583.567,155.775,587.008,151.318,590.722,145.149z M590.722,119.869c-1.599-6.455-3.941-11.611-7.026-15.467
			c-3.084-3.856-7.169-6.969-12.254-9.341c-5.085-2.37-10.427-3.556-16.024-3.556c-9.198,0-17.111,2.971-23.736,8.913
			c-4.8,4.342-8.428,10.826-10.884,19.451H590.722z"/>
		<path fill="#FFFFFF" d="M555.932,181.154c-16.001,0-28.719-5.353-37.801-15.908c-8.987-10.445-13.545-22.426-13.545-35.608
			c0-12.457,3.87-23.701,11.504-33.421c9.703-12.458,22.907-18.78,39.241-18.78c16.669,0,30.217,6.461,40.268,19.205
			c7.119,8.974,10.762,20.276,10.82,33.586l0.011,2.511h-84.3c0.667,9.132,3.903,16.765,9.637,22.716
			c6.306,6.548,13.873,9.73,23.137,9.73c4.479,0,8.885-0.797,13.094-2.367c4.212-1.573,7.834-3.656,10.764-6.191
			c2.952-2.553,6.256-6.848,9.819-12.766l1.225-2.034l14.347,7.658l-1.077,2.174c-3.381,6.819-7.433,12.402-12.041,16.592
			c-4.611,4.192-9.866,7.427-15.618,9.614C569.676,180.046,563.121,181.154,555.932,181.154z M555.331,82.437
			c-14.92,0-26.467,5.515-35.303,16.86c-6.932,8.826-10.442,19.031-10.442,30.341c0,11.952,4.15,22.835,12.335,32.347
			c8.203,9.535,19.328,14.17,34.011,14.17c6.579,0,12.536-0.997,17.706-2.964c5.165-1.964,9.886-4.87,14.032-8.64
			c3.659-3.327,6.952-7.68,9.81-12.96l-5.861-3.129c-3.406,5.404-6.554,9.324-9.587,11.946c-3.381,2.924-7.514,5.311-12.285,7.093
			c-4.771,1.781-9.764,2.684-14.843,2.684c-10.546,0-19.542-3.789-26.737-11.262c-7.161-7.432-10.914-17.065-11.153-28.633
			l-0.054-2.552h84.402c-0.468-11.068-3.72-20.477-9.685-27.995C582.491,88.096,570.604,82.437,555.331,82.437z M593.916,122.369
			h-76.431l0.907-3.185c2.575-9.043,6.481-15.98,11.611-20.621c7.074-6.345,15.622-9.559,25.413-9.559
			c5.938,0,11.685,1.275,17.081,3.79c5.415,2.526,9.839,5.905,13.149,10.045c3.299,4.123,5.822,9.65,7.501,16.428L593.916,122.369z
			 M524.199,117.369h63.235c-1.44-4.65-3.349-8.477-5.691-11.405c-2.826-3.534-6.647-6.44-11.358-8.637
			c-4.729-2.204-9.765-3.322-14.968-3.322c-8.641,0-15.859,2.707-22.067,8.274C529.529,105.734,526.457,110.803,524.199,117.369z"/>
	</g>
	<g>
		<path fill="#FFFFFF" d="M621.829,135.55V124.24c0.914-5.655,2.229-10.254,3.942-13.797c3.997-9.825,9.368-17.023,16.108-21.594
			c6.742-4.57,12.34-6.856,16.796-6.856c3.313,0,6.856,1.086,10.627,3.257l-6.256,10.111c-5.313-1.941-10.583-0.371-15.811,4.713
			c-5.227,5.085-8.841,10.626-10.839,16.624c-1.486,5.313-2.229,15.284-2.229,29.907v31.792h-12.34V135.55z"/>
		<path fill="#FFFFFF" d="M636.669,180.897h-17.34l0.032-57.056c0.941-5.829,2.329-10.678,4.124-14.414
			c4.165-10.207,9.882-17.827,16.991-22.648c7.234-4.903,13.188-7.287,18.199-7.287c3.74,0,7.735,1.208,11.874,3.59l2.236,1.287
			l-8.685,14.038l-1.913-0.699c-1.186-0.433-2.376-0.653-3.537-0.653c-3.136,0-6.391,1.618-9.672,4.81
			c-4.897,4.766-8.326,10.001-10.19,15.563c-1.407,5.084-2.12,14.899-2.12,29.176V180.897z M624.329,175.897h7.34v-29.292
			c0-14.994,0.759-24.997,2.321-30.581l0.035-0.116c2.115-6.35,5.974-12.28,11.468-17.626c5.278-5.133,10.848-7.12,16.429-5.855
			l3.837-6.2c-2.514-1.152-4.888-1.734-7.083-1.734c-3.924,0-9.103,2.162-15.394,6.425c-6.294,4.269-11.406,11.155-15.195,20.467
			l-0.064,0.147c-1.582,3.269-2.824,7.611-3.693,12.91V175.897z"/>
	</g>
	<g>
		<path fill="#FFFFFF" d="M726.802,92.619l-7.711,8.055c-6.514-6.284-12.827-9.427-18.938-9.427c-3.942,0-7.313,1.286-10.112,3.856
			c-2.8,2.571-4.2,5.627-4.2,9.169c0,2.972,1.172,5.826,3.515,8.569c2.284,2.914,7.112,6.256,14.482,10.025
			c9.025,4.628,15.139,9.114,18.337,13.454c3.143,4.4,4.714,9.341,4.714,14.825c0,7.656-2.699,14.153-8.099,19.494
			c-5.398,5.344-12.153,8.013-20.265,8.013c-5.429,0-10.613-1.155-15.553-3.47c-4.943-2.313-9.014-5.556-12.212-9.727l7.626-8.655
			c6.17,6.971,12.711,10.454,19.624,10.454c4.799,0,8.896-1.556,12.297-4.67c3.398-3.112,5.099-6.755,5.099-10.926
			c0-3.484-1.113-6.567-3.342-9.255c-2.229-2.685-7.283-6.054-15.168-10.11c-8.513-4.286-14.282-8.599-17.309-12.94
			c-3.086-4.228-4.629-9.084-4.629-14.567c0-7.141,2.443-13.068,7.327-17.782c4.884-4.712,11.012-7.069,18.382-7.069
			C709.292,79.937,718.004,84.165,726.802,92.619z"/>
		<path fill="#FFFFFF" d="M698.524,181.154c-5.775,0-11.365-1.247-16.613-3.706c-5.286-2.474-9.705-5.996-13.136-10.469
			l-1.251-1.632l10.857-12.321l1.876,2.119c5.645,6.378,11.617,9.611,17.752,9.611c4.189,0,7.659-1.313,10.608-4.014
			c2.885-2.642,4.287-5.612,4.287-9.082c0-2.909-0.905-5.414-2.767-7.659c-1.375-1.656-4.988-4.647-14.387-9.483
			c-8.954-4.508-14.919-9.004-18.216-13.733c-3.359-4.601-5.078-9.998-5.078-15.997c0-7.811,2.723-14.399,8.091-19.581
			c5.344-5.156,12.112-7.77,20.118-7.77c9.252,0,18.628,4.501,27.867,13.38l1.799,1.729l-11.172,11.671l-1.806-1.743
			c-6.002-5.79-11.79-8.726-17.203-8.726c-3.324,0-6.078,1.046-8.421,3.198c-2.282,2.095-3.392,4.492-3.392,7.328
			c0,2.376,0.954,4.648,2.916,6.946l0.066,0.081c2.048,2.613,6.642,5.755,13.653,9.342c9.464,4.853,15.747,9.496,19.211,14.196
			c3.459,4.843,5.201,10.319,5.201,16.309c0,8.313-2.975,15.469-8.841,21.271C714.691,178.214,707.282,181.154,698.524,181.154z
			 M674.042,165.514c2.729,3.09,6.081,5.576,9.989,7.405c4.58,2.146,9.456,3.234,14.493,3.234c7.497,0,13.551-2.385,18.506-7.289
			c4.951-4.897,7.357-10.692,7.357-17.718c0-4.995-1.39-9.369-4.248-13.372c-2.932-3.978-8.808-8.255-17.443-12.683
			c-7.733-3.955-12.732-7.445-15.276-10.665c-2.707-3.186-4.08-6.602-4.08-10.154c0-4.254,1.686-7.958,5.01-11.01
			c3.261-2.996,7.232-4.515,11.803-4.515c6.156,0,12.482,2.833,18.83,8.425l4.257-4.447c-7.655-6.83-15.24-10.289-22.572-10.289
			c-6.76,0-12.205,2.083-16.646,6.368c-4.417,4.263-6.563,9.491-6.563,15.983c0,4.987,1.356,9.27,4.148,13.094
			c2.803,4.02,8.314,8.104,16.413,12.181c8.282,4.262,13.499,7.773,15.968,10.747c2.6,3.136,3.918,6.786,3.918,10.852
			c0,4.882-1.988,9.178-5.91,12.77c-3.859,3.534-8.564,5.326-13.985,5.326c-6.896,0-13.467-3.105-19.566-9.238L674.042,165.514z"/>
	</g>
</g>
<g>
	<path fill="#FFFFFF" d="M82.418,0C36.902,0,0,36.9,0,82.42c0,48.668,82.418,142.664,82.418,142.664s82.419-90.379,82.419-142.664
		C164.837,36.9,127.938,0,82.418,0z M82.418,0C36.902,0,0,36.9,0,82.42c0,48.668,82.418,142.664,82.418,142.664
		s82.419-90.379,82.419-142.664C164.837,36.9,127.938,0,82.418,0z"/>
	<g>
		<path fill="#142133" d="M82.07,15.117C40.193,13.567,13.461,48.23,13.461,82.186c0,40.196,68.611,118.905,68.611,118.905
			s67.942-76.058,68.606-118.905C151.375,37.268,111.525,16.207,82.07,15.117z"/>
		<g>
			<linearGradient id="SVGID_1_" gradientUnits="userSpaceOnUse" x1="107.1357" y1="103.2212" x2="149.9492" y2="103.2212">
				<stop  offset="0" style="stop-color:#EF4136"/>
				<stop  offset="1" style="stop-color:#F15A29"/>
			</linearGradient>
			<path fill="url(#SVGID_1_)" d="M147.217,91.829c-1.258-0.329-2.529-0.61-3.802-0.882l-3.812-0.829
				c-1.267-0.29-2.544-0.531-3.822-0.766l-3.83-0.731l-1.913-0.365l-1.925-0.313c-2.566-0.404-5.121-0.859-7.693-1.221l-3.857-0.543
				c-1.287-0.17-2.566-0.387-3.857-0.52c-1.859-0.201-3.715-0.425-5.569-0.646l0.394,7.164c0.07,2.594,0.087,5.189,0.114,7.785
				l0.793,0.123l1.215,0.192l1.199,0.284l2.394,0.581l2.342,0.773c0.788,0.238,1.54,0.571,2.295,0.898
				c0.748,0.339,1.527,0.61,2.246,1.011l2.18,1.145c0.722,0.391,1.396,0.858,2.096,1.285l1.039,0.654l0.988,0.727
				c0.65,0.493,1.33,0.951,1.946,1.486l1.849,1.602c0.612,0.534,1.166,1.133,1.749,1.697l0.863,0.857l0.807,0.908
				c0.53,0.611,1.095,1.193,1.593,1.83l1.498,1.9c0.497,0.635,0.933,1.313,1.4,1.969l0.689,0.988l0.348,0.555
				c5.06-10.003,8.961-19.883,10.777-28.918L147.217,91.829z"/>
			<linearGradient id="SVGID_2_" gradientUnits="userSpaceOnUse" x1="91.3076" y1="34.2983" x2="136.5205" y2="34.2983">
				<stop  offset="0" style="stop-color:#EF4136"/>
				<stop  offset="1" style="stop-color:#F15A29"/>
			</linearGradient>
			<path fill="url(#SVGID_2_)" d="M91.308,16.207l1.813,4.398l0.941,2.287l0.48,1.142l0.412,1.165l1.65,4.668l0.838,2.335
				c0.301,0.772,0.521,1.568,0.762,2.357l1.429,4.751l0.716,2.378l0.358,1.19l0.304,1.203l1.168,4.824
				c0.277,1.162,0.559,2.322,0.833,3.484l1.309-0.016l1.263-0.013l1.256-0.071c0.838-0.054,1.675-0.083,2.51-0.156l2.491-0.234
				c0.833-0.066,1.646-0.233,2.47-0.335c0.826-0.096,1.637-0.254,2.445-0.421c0.813-0.152,1.621-0.318,2.411-0.535
				c0.794-0.207,1.601-0.379,2.37-0.654c0.772-0.26,1.564-0.479,2.311-0.795c0.756-0.298,1.525-0.573,2.244-0.943l1.098-0.519
				c0.361-0.181,0.706-0.388,1.062-0.579c0.722-0.37,1.39-0.816,2.062-1.262c0.345-0.212,0.67-0.448,0.982-0.703l0.957-0.736
				c0.598-0.537,1.219-1.055,1.783-1.631l0.853-0.863c0.278-0.295,0.528-0.613,0.798-0.918c0.3-0.329,0.57-0.684,0.835-1.043
				l-2.96-2.898l-2.02-1.77c-0.677-0.587-1.341-1.195-2.031-1.766l-2.127-1.652c-0.714-0.545-1.41-1.121-2.143-1.643l-2.232-1.517
				c-0.751-0.496-1.484-1.028-2.254-1.497l-2.329-1.375c-0.78-0.456-1.554-0.928-2.356-1.34l-2.429-1.203
				c-0.813-0.393-1.612-0.819-2.438-1.188c-0.832-0.355-1.667-0.702-2.506-1.04c-0.84-0.337-1.674-0.694-2.52-1.016l-5.161-1.7
				l-4.907-1.253C94.506,16.804,92.908,16.495,91.308,16.207z"/>
			<linearGradient id="SVGID_3_" gradientUnits="userSpaceOnUse" x1="97.3379" y1="17.8706" x2="101.0146" y2="17.8706">
				<stop  offset="0" style="stop-color:#EF4136"/>
				<stop  offset="1" style="stop-color:#F15A29"/>
			</linearGradient>
			<path fill="url(#SVGID_3_)" d="M101.015,18.359c-1.225-0.355-2.451-0.676-3.677-0.977L101.015,18.359z"/>
			<linearGradient id="SVGID_4_" gradientUnits="userSpaceOnUse" x1="104.7217" y1="66.6064" x2="151.0742" y2="66.6064">
				<stop  offset="0" style="stop-color:#EF4136"/>
				<stop  offset="1" style="stop-color:#F15A29"/>
			</linearGradient>
			<path fill="url(#SVGID_4_)" d="M137.867,51.33c-0.77,0.604-1.499,1.27-2.308,1.82c-0.804,0.559-1.595,1.141-2.448,1.616
				l-1.262,0.747l-1.309,0.648c-0.438,0.209-0.869,0.441-1.316,0.633l-1.347,0.551c-0.892,0.391-1.81,0.688-2.728,0.99
				c-0.913,0.328-1.844,0.572-2.775,0.813l-1.396,0.367l-1.408,0.285c-0.939,0.189-1.879,0.396-2.826,0.512
				c-0.944,0.127-1.89,0.296-2.836,0.388l-2.844,0.258c-0.949,0.074-1.896,0.078-2.846,0.121l-1.422,0.051l-1.418-0.01l-0.657-0.006
				l0.927,7.083l0.076,0.575l0.04,0.328l0.028,0.29l0.111,1.164l0.206,2.329l0.29,3.271l6.326,0.857
				c1.291,0.172,2.573,0.408,3.859,0.619l3.852,0.667c1.285,0.206,2.559,0.481,3.836,0.737l3.83,0.773
				c2.557,0.484,5.077,1.16,7.611,1.748l1.897,0.455l1.886,0.508l3.77,1.016l1.88,0.52l1.864,0.575l3.727,1.151
				c0.059,0.018,0.114,0.037,0.17,0.054c0.104-1.259,0.166-2.499,0.166-3.712c0-12.68-3.441-24.555-9.438-34.748
				c-0.219,0.277-0.436,0.555-0.665,0.824l-0.997,1.082C139.328,50.017,138.568,50.644,137.867,51.33z"/>
			<linearGradient id="SVGID_5_" gradientUnits="userSpaceOnUse" x1="14.6191" y1="110.4365" x2="98.7451" y2="110.4365">
				<stop  offset="0" style="stop-color:#EF4136"/>
				<stop  offset="1" style="stop-color:#F15A29"/>
			</linearGradient>
			<path fill="url(#SVGID_5_)" d="M43.602,130.498c1.764-1.658,3.557-3.289,5.388-4.879c0.909-0.803,1.825-1.6,2.755-2.375
				c0.926-0.787,1.852-1.572,2.801-2.332c1.877-1.539,3.79-3.043,5.741-4.498c0.976-0.729,1.948-1.461,2.952-2.156
				c0.994-0.705,1.986-1.412,3.01-2.08c1.014-0.683,2.03-1.358,3.076-1.996l1.559-0.973l1.588-0.925l1.596-0.918l1.627-0.866
				c1.074-0.596,2.197-1.109,3.307-1.643c1.101-0.554,2.264-0.99,3.393-1.488c1.143-0.471,2.32-0.875,3.48-1.309
				c2.366-0.756,4.762-1.469,7.234-1.896c1.848-0.383,3.739-0.573,5.638-0.676l-0.126-7.602l-0.367-7.853l-5.84-0.505
				c-2.463-0.176-4.928-0.294-7.393-0.444c-2.466-0.112-4.934-0.157-7.4-0.24c-2.468-0.046-4.936-0.014-7.404-0.041
				c-2.467,0.007-4.933,0.114-7.401,0.166c-2.468,0.075-4.927,0.271-7.393,0.4c-2.464,0.147-4.914,0.438-7.375,0.649
				c-2.458,0.23-4.896,0.604-7.349,0.895c-1.229,0.135-2.443,0.354-3.66,0.556l-3.652,0.611c-1.223,0.183-2.428,0.45-3.635,0.704
				l-3.624,0.765c-1.216,0.229-2.403,0.56-3.601,0.862l-3.591,0.911c-1.206,0.279-2.38,0.667-3.561,1.024l-0.755,0.23
				c2.637,14.068,11.095,31.078,21.189,47.492c0.85-0.852,1.693-1.709,2.551-2.551C40.088,133.828,41.828,132.148,43.602,130.498z"
				/>
			<linearGradient id="SVGID_6_" gradientUnits="userSpaceOnUse" x1="101.0146" y1="18.9937" x2="105.0098" y2="18.9937">
				<stop  offset="0" style="stop-color:#EF4136"/>
				<stop  offset="1" style="stop-color:#F15A29"/>
			</linearGradient>
			<path fill="url(#SVGID_6_)" d="M101.015,18.359l3.995,1.27C103.693,19.181,102.365,18.75,101.015,18.359z"/>
			<linearGradient id="SVGID_7_" gradientUnits="userSpaceOnUse" x1="40.2266" y1="152.1304" x2="98.6855" y2="152.1304">
				<stop  offset="0" style="stop-color:#EF4136"/>
				<stop  offset="1" style="stop-color:#F15A29"/>
			</linearGradient>
			<path fill="url(#SVGID_7_)" d="M80.713,191.277c0.878-1.744,1.848-3.443,2.617-5.236c0.801-1.777,1.639-3.527,2.346-5.359
				l1.105-2.719c0.344-0.891,0.648-1.834,0.976-2.746l1.926-5.518c0.577-1.859,1.081-3.744,1.625-5.611l0.802-2.809
				c0.275-0.932,0.45-1.895,0.682-2.838l1.304-5.689c0.423-1.898,0.706-3.828,1.065-5.738c0.323-1.918,0.736-3.818,0.952-5.754
				l0.767-5.783c0.294-1.922,0.397-3.867,0.594-5.801c0.154-1.938,0.398-3.865,0.525-5.805l0.349-5.82
				c0.052-0.969,0.132-1.938,0.161-2.908l0.066-2.914l0.111-3.861l-0.559,0.029l-0.818,0.104l-1.639,0.207l-1.628,0.325
				c-1.09,0.181-2.153,0.536-3.231,0.802c-1.063,0.335-2.129,0.674-3.181,1.061c-2.089,0.809-4.181,1.648-6.201,2.67l-1.522,0.752
				l-1.496,0.809c-1.008,0.521-1.982,1.113-2.965,1.688c-1.957,1.158-3.873,2.402-5.764,3.689c-1.894,1.285-3.764,2.611-5.604,3.982
				c-1.838,1.377-3.648,2.789-5.438,4.238c-1.786,1.453-3.549,2.936-5.31,4.426c-1.755,1.494-3.494,3.014-5.21,4.559
				c-1.721,1.543-3.426,3.105-5.107,4.691c-0.939,0.877-1.86,1.773-2.787,2.662c14.217,21.943,30.331,41.836,37.87,50.834
				C78.976,194.357,79.883,192.837,80.713,191.277z"/>
			<linearGradient id="SVGID_8_" gradientUnits="userSpaceOnUse" x1="84.2324" y1="152.5015" x2="134.7129" y2="152.5015">
				<stop  offset="0" style="stop-color:#EF4136"/>
				<stop  offset="1" style="stop-color:#F15A29"/>
			</linearGradient>
			<path fill="url(#SVGID_8_)" d="M134.713,129.763c-0.027-0.045-0.055-0.092-0.082-0.137c-0.386-0.633-0.748-1.283-1.168-1.893
				l-1.232-1.85l-1.312-1.785c-0.434-0.594-0.924-1.145-1.382-1.719c-0.453-0.582-0.957-1.117-1.451-1.658
				c-0.964-1.111-2.034-2.109-3.098-3.109l-1.664-1.422c-0.57-0.451-1.167-0.869-1.748-1.307c-0.57-0.457-1.207-0.809-1.814-1.205
				l-0.92-0.584l-0.959-0.514c-0.648-0.324-1.264-0.719-1.938-0.987l-1.995-0.868c-1.373-0.468-2.73-0.99-4.154-1.301
				c-0.764-0.227-1.545-0.379-2.331-0.515l-0.171,3.731c-0.088,1.943-0.16,3.891-0.348,5.828l-0.482,5.822l-0.119,1.453
				l-0.178,1.451l-0.352,2.898c-0.252,1.932-0.461,3.867-0.766,5.791l-0.979,5.76l-0.488,2.877l-0.617,2.855l-1.244,5.707
				c-0.449,1.893-1.01,3.762-1.508,5.641l-0.77,2.814c-0.135,0.471-0.25,0.941-0.395,1.406l-0.461,1.391l-1.849,5.553
				c-0.577,1.869-1.372,3.627-2.077,5.432c-0.739,1.797-1.404,3.582-2.205,5.391c-0.826,1.76-1.612,3.535-2.514,5.256
				c-0.442,0.863-0.867,1.734-1.323,2.592l-1.415,2.543c-0.463,0.854-0.957,1.684-1.467,2.508l-1.506,2.48l2.889-0.463
				C96.762,184.478,119.159,157.429,134.713,129.763z"/>
			<linearGradient id="SVGID_9_" gradientUnits="userSpaceOnUse" x1="36.1074" y1="33.5718" x2="94.7461" y2="33.5718">
				<stop  offset="0" style="stop-color:#EF4136"/>
				<stop  offset="1" style="stop-color:#F15A29"/>
			</linearGradient>
			<path fill="url(#SVGID_9_)" d="M77.426,15.138l-3.924,0.176l-3.904,0.326c-1.299,0.141-2.59,0.328-3.881,0.488
				c-1.29,0.193-2.569,0.445-3.852,0.65c-0.48,0.09-0.961,0.191-1.441,0.291c-9.113,3.08-17.369,8.024-24.316,14.375
				c1.086,0.395,2.168,0.797,3.239,1.219c1.476,0.58,2.948,1.168,4.401,1.783c2.919,1.221,5.807,2.463,8.668,3.745l4.295,1.903
				l4.301,1.852c1.428,0.633,2.88,1.18,4.32,1.773l2.164,0.871l2.181,0.807c1.458,0.529,2.892,1.138,4.37,1.592l4.411,1.454
				l4.47,1.228c1.482,0.453,3.008,0.698,4.511,1.053c1.509,0.328,3.015,0.699,4.546,0.885l2.762,0.418l-0.512-3.016
				c-0.267-1.642-0.604-3.269-0.903-4.906c-0.288-1.641-0.673-3.257-1.015-4.886c-0.181-0.812-0.337-1.631-0.541-2.437l-0.576-2.429
				c-0.197-0.808-0.369-1.624-0.59-2.427l-0.648-2.41c-0.224-0.803-0.42-1.615-0.666-2.41l-0.711-2.395
				c-0.24-0.799-0.469-1.603-0.746-2.385l-0.798-2.369c-0.513-1.59-1.162-3.139-1.735-4.71l-3.943-0.132L77.426,15.138z"/>
			<linearGradient id="SVGID_10_" gradientUnits="userSpaceOnUse" x1="13.7637" y1="60.0117" x2="97.627" y2="60.0117">
				<stop  offset="0" style="stop-color:#EF4136"/>
				<stop  offset="1" style="stop-color:#F15A29"/>
			</linearGradient>
			<path fill="url(#SVGID_10_)" d="M13.779,82.755c1.588-0.511,3.174-1.023,4.779-1.475l3.604-0.955
				c1.207-0.3,2.396-0.67,3.615-0.909c2.43-0.513,4.848-1.094,7.287-1.55c2.447-0.417,4.885-0.895,7.34-1.262
				c2.459-0.328,4.914-0.704,7.377-0.99c2.469-0.239,4.933-0.533,7.403-0.727c2.476-0.15,4.947-0.33,7.423-0.458l7.428-0.229
				l7.43-0.011l7.424,0.197l7.412,0.424l5.326,0.453l-0.234-2.492l-0.215-2.284l-0.055-0.548l-0.072-0.565l-0.146-1.13L95.9,60.371
				l-3.881-0.496c-1.73-0.172-3.425-0.566-5.127-0.895c-1.701-0.346-3.413-0.639-5.075-1.125c-1.673-0.452-3.356-0.865-5.015-1.348
				l-4.93-1.598c-1.642-0.537-3.236-1.195-4.855-1.789c-1.621-0.585-3.203-1.258-4.789-1.921c-1.59-0.655-3.177-1.317-4.739-2.028
				c-1.563-0.703-3.148-1.377-4.693-2.107L48.141,44.9l-4.653-2.152c-1.552-0.717-3.108-1.413-4.673-2.094
				c-1.553-0.709-3.136-1.336-4.711-1.995c-0.786-0.328-1.592-0.606-2.387-0.914c-0.425-0.156-0.848-0.319-1.271-0.477
				C20.05,49.3,13.764,64.978,13.764,82.125C13.764,82.333,13.775,82.546,13.779,82.755z"/>
		</g>
	</g>
</g>
</svg>
